<svg version="1.1" viewBox="0.0 0.0 793.7007874015748 566.9291338582677" fill="none" stroke="none" stroke-linecap="square" stroke-miterlimit="10" xmlns:xlink="http://www.w3.org/1999/xlink" xmlns="http://www.w3.org/2000/svg"><clipPath id="p.0"><path d="m0 0l793.7008 0l0 566.92914l-793.7008 0l0 -566.92914z" clip-rule="nonzero"/></clipPath><g clip-path="url(#p.0)"><path fill="#ffffff" d="m0 0l793.7008 0l0 566.92914l-793.7008 0z" fill-rule="evenodd"/><path fill="#000000" fill-opacity="0.0" d="m69.67454 266.2259l1.481514 -1.2307739l1.481514 -0.75323486l1.4876862 -0.3446045l1.4815063 -0.019714355l1.9753494 0.35446167l2.9692001 0.96984863l3.4568558 1.0732422l1.9815292 0.24615479l1.9815216 -0.12799072l1.9753494 -0.4529419l2.4691849 -0.9796753l2.4691849 -1.3587952l2.9691925 -2.0283203l3.956871 -3.1557007l11.370605 -9.821564l4.9445496 -4.686798l3.956871 -4.233856l3.4568558 -4.199402l3.4630356 -4.745865l3.9568787 -6.0455627l4.9445343 -8.300354l6.426056 -11.63327l15.82132 -29.120117l4.9445496 -8.083725l5.9322205 -8.866501l9.395248 -13.9865265l13.345947 -20.854233l3.4630432 -4.420944l3.4568634 -3.7957077l3.9568634 -3.7809372l6.926071 -5.9618683l10.382919 -8.625267l4.938385 -3.6627808l2.9691925 -1.8461609l2.4691772 -1.1470871l1.9815369 -0.580925l1.9753418 -0.21169281l1.9815216 0.21661377l1.4815063 0.48246765l1.975357 1.0387726l2.9691925 2.0480118l3.9568787 2.737236l1.9753418 0.9796982l1.4815063 0.42338562l1.4876862 0.06892395l3.950714 -0.28553772l0.9876709 0.42338562l0.99383545 0.8516922l0.9876709 1.3883133l0.9876709 2.0529327l0.9877014 2.820938l0.99383545 3.7070923l1.4815063 7.47818l1.4815063 10.126816l1.4815063 13.154518l1.9753723 22.326248l3.0247498 50.722656l3.9013062 51.60884l3.4630432 51.406982l2.4691772 30.936737l1.9753418 19.303467l1.4877014 11.195129l1.4815063 8.600647l1.4815063 6.2227783l0.99386597 2.9243164l0.9876709 2.0086365l0.9876709 1.1667786l0.9876709 0.3840027l0.9876709 -0.34954834l0.9876709 -1.0092468l0.9876709 -1.61969l1.4877014 -3.4313965l1.4876709 -4.455414l1.9753418 -7.172943l2.9630432 -12.425903l5.438385 -23.020386l1.9815063 -6.902191l1.9753418 -5.7550964l1.9753723 -4.7311096l1.9753418 -3.8203125l1.9815063 -3.0375671l1.9753723 -2.3630676l1.9815063 -1.8067932l1.9753418 -1.3833923l2.4692078 -1.2947693l8.407562 -3.8399963l2.4753723 -1.8313904l2.4691772 -2.30896l2.9692078 -3.2836914l3.4568481 -4.391388l4.9445496 -6.9415894l10.382935 -14.769287l8.407562 -10.880035l6.919922 -9.19635l4.4506836 -6.4886475l5.438385 -8.684341l14.339813 -23.369934l5.438385 -7.8178864l13.845947 -19.49054l6.426056 -10.121887l10.870605 -17.211151l5.4445496 -7.812958l4.450714 -5.7846375l3.9506836 -4.6030884l3.9568787 -4.051712l5.438385 -4.947708l8.407593 -7.5717316l10.3767395 -9.81665l2.9692078 -2.2055511l2.4753418 -1.4227676l2.4753723 -1.0141602l2.4691772 -0.61538696l2.4692078 -0.2166214l2.4753418 0.16738892l2.4691772 0.54154205l2.4692078 0.90584564l2.4753418 1.2849274l2.4692078 1.6640091l2.4753418 2.0430832l2.9630432 2.9833984l2.9691772 3.579094l2.4691772 3.539711l1.9815674 3.5052338l1.9753418 4.391403l1.9753418 5.5237274l1.9815063 6.9366302l1.9815063 8.605576l1.9753418 10.535431l1.9754028 12.676971l2.4753418 18.35823l5.43219 44.50972l3.4630127 26.54042l2.4754028 15.867157l1.9753418 9.890503l1.4815063 5.5384827l1.4876709 4.032013l1.4815063 2.6732178l0.99383545 1.0830994l0.98773193 0.5809326l0.9876709 0.12307739l0.9876709 -0.30523682l0.9876709 -0.6892395l1.4815063 -1.6590881l1.4815063 -2.2990723l1.9815063 -3.8104858l2.9630127 -6.646179l4.4507446 -9.929901l1.9753418 -3.5938416l1.9815063 -2.9440308l1.9753418 -2.3876953l1.9815063 -1.9200134l2.4692383 -1.8559875l2.4753418 -1.4178772l3.9506836 -1.7772217l4.4507446 -2.0332336l2.4753418 -1.4769287l2.4691772 -1.8757019l2.4753418 -2.3286438l2.4691772 -2.8356934l2.4754028 -3.3920135l2.4691772 -4.002472l2.4691772 -4.6621704l2.4753418 -5.380951l2.9692383 -7.47818l3.4568481 -10.043121l4.456848 -14.242523l8.895264 -28.760727l3.4630127 -9.782196l2.9630737 -7.360031l2.9630127 -6.414795l2.9691772 -5.5138702l2.9691772 -4.617859l2.4692383 -3.185257l2.4753418 -2.6092377l2.4691772 -2.1218567l2.9691772 -2.0775452l5.4384155 -3.2344666l3.9568481 -2.5255585l3.9506836 -3.0178528l8.901428 -6.9760284l2.9692383 -1.8609314l3.4568481 -1.7575455l4.944519 -2.0873947l0 0" fill-rule="evenodd"/><path stroke="#ff0000" stroke-width="3.7401574803149606" stroke-linejoin="round" d="m69.67454 266.2259l1.481514 -1.2307739l1.481514 -0.75323486l1.4876862 -0.3446045l1.4815063 -0.019714355l1.9753494 0.35446167l2.9692001 0.96984863l3.4568558 1.0732422l1.9815292 0.24615479l1.9815216 -0.12799072l1.9753494 -0.4529419l2.4691849 -0.9796753l2.4691849 -1.3587952l2.9691925 -2.0283203l3.956871 -3.1557007l11.370605 -9.821564l4.9445496 -4.686798l3.956871 -4.233856l3.4568558 -4.199402l3.4630356 -4.745865l3.9568787 -6.0455627l4.9445343 -8.300354l6.426056 -11.63327l15.82132 -29.120117l4.9445496 -8.083725l5.9322205 -8.866501l9.395248 -13.9865265l13.345947 -20.854233l3.4630432 -4.420944l3.4568634 -3.7957077l3.9568634 -3.7809372l6.926071 -5.9618683l10.382919 -8.625267l4.938385 -3.6627808l2.9691925 -1.8461609l2.4691772 -1.1470871l1.9815369 -0.580925l1.9753418 -0.21169281l1.9815216 0.21661377l1.4815063 0.48246765l1.975357 1.0387726l2.9691925 2.0480118l3.9568787 2.737236l1.9753418 0.9796982l1.4815063 0.42338562l1.4876862 0.06892395l3.950714 -0.28553772l0.9876709 0.42338562l0.99383545 0.8516922l0.9876709 1.3883133l0.9876709 2.0529327l0.9877014 2.820938l0.99383545 3.7070923l1.4815063 7.47818l1.4815063 10.126816l1.4815063 13.154518l1.9753723 22.326248l3.0247498 50.722656l3.9013062 51.60884l3.4630432 51.406982l2.4691772 30.936737l1.9753418 19.303467l1.4877014 11.195129l1.4815063 8.600647l1.4815063 6.2227783l0.99386597 2.9243164l0.9876709 2.0086365l0.9876709 1.1667786l0.9876709 0.3840027l0.9876709 -0.34954834l0.9876709 -1.0092468l0.9876709 -1.61969l1.4877014 -3.4313965l1.4876709 -4.455414l1.9753418 -7.172943l2.9630432 -12.425903l5.438385 -23.020386l1.9815063 -6.902191l1.9753418 -5.7550964l1.9753723 -4.7311096l1.9753418 -3.8203125l1.9815063 -3.0375671l1.9753723 -2.3630676l1.9815063 -1.8067932l1.9753418 -1.3833923l2.4692078 -1.2947693l8.407562 -3.8399963l2.4753723 -1.8313904l2.4691772 -2.30896l2.9692078 -3.2836914l3.4568481 -4.391388l4.9445496 -6.9415894l10.382935 -14.769287l8.407562 -10.880035l6.919922 -9.19635l4.4506836 -6.4886475l5.438385 -8.684341l14.339813 -23.369934l5.438385 -7.8178864l13.845947 -19.49054l6.426056 -10.121887l10.870605 -17.211151l5.4445496 -7.812958l4.450714 -5.7846375l3.9506836 -4.6030884l3.9568787 -4.051712l5.438385 -4.947708l8.407593 -7.5717316l10.3767395 -9.81665l2.9692078 -2.2055511l2.4753418 -1.4227676l2.4753723 -1.0141602l2.4691772 -0.61538696l2.4692078 -0.2166214l2.4753418 0.16738892l2.4691772 0.54154205l2.4692078 0.90584564l2.4753418 1.2849274l2.4692078 1.6640091l2.4753418 2.0430832l2.9630432 2.9833984l2.9691772 3.579094l2.4691772 3.539711l1.9815674 3.5052338l1.9753418 4.391403l1.9753418 5.5237274l1.9815063 6.9366302l1.9815063 8.605576l1.9753418 10.535431l1.9754028 12.676971l2.4753418 18.35823l5.43219 44.50972l3.4630127 26.54042l2.4754028 15.867157l1.9753418 9.890503l1.4815063 5.5384827l1.4876709 4.032013l1.4815063 2.6732178l0.99383545 1.0830994l0.98773193 0.5809326l0.9876709 0.12307739l0.9876709 -0.30523682l0.9876709 -0.6892395l1.4815063 -1.6590881l1.4815063 -2.2990723l1.9815063 -3.8104858l2.9630127 -6.646179l4.4507446 -9.929901l1.9753418 -3.5938416l1.9815063 -2.9440308l1.9753418 -2.3876953l1.9815063 -1.9200134l2.4692383 -1.8559875l2.4753418 -1.4178772l3.9506836 -1.7772217l4.4507446 -2.0332336l2.4753418 -1.4769287l2.4691772 -1.8757019l2.4753418 -2.3286438l2.4691772 -2.8356934l2.4754028 -3.3920135l2.4691772 -4.002472l2.4691772 -4.6621704l2.4753418 -5.380951l2.9692383 -7.47818l3.4568481 -10.043121l4.456848 -14.242523l8.895264 -28.760727l3.4630127 -9.782196l2.9630737 -7.360031l2.9630127 -6.414795l2.9691772 -5.5138702l2.9691772 -4.617859l2.4692383 -3.185257l2.4753418 -2.6092377l2.4691772 -2.1218567l2.9691772 -2.0775452l5.4384155 -3.2344666l3.9568481 -2.5255585l3.9506836 -3.0178528l8.901428 -6.9760284l2.9692383 -1.8609314l3.4568481 -1.7575455l4.944519 -2.0873947l0 0" fill-rule="evenodd"/><path fill="#000000" fill-opacity="0.0" d="m554.8189 113.565796l1.1968384 191.81104" fill-rule="evenodd"/><path stroke="#595959" stroke-width="1.8923884514435696" stroke-linejoin="round" stroke-linecap="butt" d="m554.8898 124.9199l1.0551147 169.10281" fill-rule="evenodd"/><path fill="#595959" stroke="#595959" stroke-width="1.8923884514435696" stroke-linecap="butt" d="m558.0154 124.9004l-3.1791992 -8.568176l-3.0720825 8.607185z" fill-rule="evenodd"/><path fill="#595959" stroke="#595959" stroke-width="1.8923884514435696" stroke-linecap="butt" d="m552.8192 294.0422l3.1792603 8.568176l3.0720825 -8.607178z" fill-rule="evenodd"/><path fill="#000000" d="m303.30484 410.5699l-17.950806 0l8.975403 -9.39801z" fill-rule="evenodd"/><path stroke="#000000" stroke-width="1.8923884514435696" stroke-linejoin="round" stroke-linecap="butt" d="m303.30484 410.5699l-17.950806 0l8.975403 -9.39801z" fill-rule="evenodd"/><path fill="#000000" fill-opacity="0.0" d="m189.57286 406.23972l172.15749 0l0 67.24411l-172.15749 0z" fill-rule="evenodd"/><path fill="#000000" d="m242.3542 448.45654l3.34375 -16.0l-5.921875 0l0.4375 -2.046875l14.203125 0l-0.4375 2.046875l-5.875 0l-3.328125 16.0l-2.421875 0zm8.657379 0l2.734375 -13.078125l1.96875 0l-0.5625 2.671875q1.0156403 -1.515625 1.9843903 -2.234375q0.96875 -0.734375 1.96875 -0.734375q0.671875 0 1.640625 0.484375l-0.90625 2.0625q-0.578125 -0.421875 -1.28125 -0.421875q-1.15625 0 -2.390625 1.3125q-1.2343903 1.3125 -1.9375153 4.6875l-1.109375 5.25l-2.109375 0zm8.788681 -4.96875q0 -3.828125 2.25 -6.328125q1.859375 -2.078125 4.875 -2.078125q2.359375 0 3.8125 1.484375q1.453125 1.46875 1.453125 3.984375q0 2.25 -0.921875 4.203125q-0.90625 1.9375 -2.59375 2.96875q-1.671875 1.03125 -3.53125 1.03125q-1.53125 0 -2.78125 -0.65625q-1.25 -0.65625 -1.90625 -1.84375q-0.65625 -1.203125 -0.65625 -2.765625zm2.21875 -0.21875q0 1.84375 0.890625 2.8125q0.890625 0.953125 2.25 0.953125q0.71875 0 1.421875 -0.28125q0.703125 -0.296875 1.296875 -0.890625q0.609375 -0.59375 1.03125 -1.34375q0.4375 -0.765625 0.6875 -1.640625q0.390625 -1.21875 0.390625 -2.34375q0 -1.765625 -0.90625 -2.75q-0.890625 -0.984375 -2.234375 -0.984375q-1.046875 0 -1.921875 0.5q-0.859375 0.5 -1.5625 1.46875q-0.6875 0.953125 -1.015625 2.234375q-0.328125 1.265625 -0.328125 2.265625zm20.337952 2.828125q-2.359375 2.65625 -4.8125 2.65625q-1.515625 0 -2.453125 -0.859375q-0.921875 -0.875 -0.921875 -2.140625q0 -0.8125 0.421875 -2.828125l1.578125 -7.546875l2.21875 0l-1.75 8.359375q-0.21875 1.046875 -0.21875 1.625q0 0.734375 0.453125 1.15625q0.453125 0.40625 1.328125 0.40625q0.921875 0 1.8125 -0.453125q0.90625 -0.453125 1.546875 -1.21875q0.640625 -0.78125 1.0625 -1.84375q0.265625 -0.671875 0.625 -2.375l1.171875 -5.65625l2.234375 0l-2.734375 13.078125l-2.0625 0l0.5 -2.359375zm4.978607 3.546875l2.25 0.203125q-0.03125 0.765625 0.171875 1.140625q0.21875 0.390625 0.671875 0.59375q0.609375 0.28125 1.5625 0.28125q2.03125 0 2.90625 -1.046875q0.578125 -0.703125 1.078125 -3.0625l0.21875 -1.0625q-1.734375 1.765625 -3.6875 1.765625q-1.984375 0 -3.328125 -1.453125q-1.328125 -1.46875 -1.328125 -4.140625q0 -2.203125 1.046875 -4.046875q1.0625 -1.84375 2.515625 -2.78125q1.453125 -0.953125 2.984375 -0.953125q2.578125 0 3.96875 2.4375l0.4375 -2.140625l2.046875 0l-2.640625 12.625q-0.421875 2.078125 -1.125 3.234375q-0.703125 1.171875 -1.953125 1.8125q-1.25 0.640625 -2.890625 0.640625q-1.578125 0 -2.71875 -0.40625q-1.140625 -0.40625 -1.703125 -1.1875q-0.546875 -0.78125 -0.546875 -1.796875q0 -0.296875 0.0625 -0.65625zm2.78125 -6.96875q0 1.34375 0.25 2.015625q0.375 0.953125 1.046875 1.453125q0.6875 0.484375 1.53125 0.484375q1.09375 0 2.171875 -0.765625q1.09375 -0.765625 1.765625 -2.375q0.671875 -1.625 0.671875 -3.078125q0 -1.625 -0.890625 -2.578125q-0.890625 -0.953125 -2.21875 -0.953125q-0.8125 0 -1.578125 0.4375q-0.765625 0.4375 -1.421875 1.328125q-0.65625 0.890625 -1.0 2.140625q-0.328125 1.25 -0.328125 1.890625zm11.369202 5.78125l3.765625 -18.046875l2.21875 0l-1.4375 6.921875q1.25 -1.203125 2.3125 -1.71875q1.078125 -0.53125 2.203125 -0.53125q1.625 0 2.515625 0.859375q0.90625 0.859375 0.90625 2.265625q0 0.6875 -0.390625 2.53125l-1.609375 7.71875l-2.234375 0l1.671875 -7.921875q0.359375 -1.71875 0.359375 -2.15625q0 -0.640625 -0.453125 -1.046875q-0.4375 -0.40625 -1.28125 -0.40625q-1.203125 0 -2.296875 0.640625q-1.09375 0.625 -1.71875 1.734375q-0.625 1.09375 -1.140625 3.546875l-1.171875 5.609375l-2.21875 0z" fill-rule="nonzero"/><path fill="#000000" fill-opacity="0.0" d="m382.23154 51.933445l215.18112 0l0 67.244095l-215.18112 0z" fill-rule="evenodd"/><path fill="#000000" d="m462.1597 94.150276l3.78125 -18.046875l7.546875 0q1.953125 0 2.921875 0.453125q0.984375 0.4375 1.625 1.53125q0.640625 1.09375 0.640625 2.4375q0 1.125 -0.453125 2.28125q-0.453125 1.15625 -1.15625 1.90625q-0.6875 0.75 -1.40625 1.140625q-0.71875 0.375 -1.53125 0.5625q-1.734375 0.40625 -3.5 0.40625l-4.515625 0l-1.53125 7.328125l-2.421875 0zm4.375 -9.375l3.984375 0q2.3125 0 3.390625 -0.5q1.09375 -0.5 1.734375 -1.515625q0.65625 -1.015625 0.65625 -2.171875q0 -0.875 -0.34375 -1.4375q-0.34375 -0.5625 -0.96875 -0.828125q-0.625 -0.265625 -2.421875 -0.265625l-4.625 0l-1.40625 6.71875zm21.805084 4.9375l2.171875 0.21875q-0.46875 1.609375 -2.15625 3.0625q-1.671875 1.453125 -4.0 1.453125q-1.453125 0 -2.671875 -0.671875q-1.203125 -0.671875 -1.84375 -1.953125q-0.625 -1.28125 -0.625 -2.921875q0 -2.140625 0.984375 -4.15625q0.984375 -2.015625 2.5625 -2.984375q1.578125 -0.984375 3.421875 -0.984375q2.328125 0 3.71875 1.453125q1.40625 1.453125 1.40625 3.96875q0 0.953125 -0.171875 1.96875l-9.625 0q-0.046875 0.375 -0.046875 0.6875q0 1.84375 0.84375 2.8125q0.84375 0.953125 2.0625 0.953125q1.140625 0 2.25 -0.75q1.109375 -0.75 1.71875 -2.15625zm-6.46875 -3.25l7.328125 0q0.015625 -0.34375 0.015625 -0.484375q0 -1.671875 -0.84375 -2.5625q-0.828125 -0.90625 -2.140625 -0.90625q-1.4375 0 -2.609375 0.984375q-1.171875 0.984375 -1.75 2.96875zm19.712982 6.0625q-1.15625 1.0 -2.234375 1.46875q-1.0625 0.453125 -2.28125 0.453125q-1.8125 0 -2.921875 -1.0625q-1.109375 -1.0625 -1.109375 -2.734375q0 -1.09375 0.5 -1.9375q0.5 -0.84375 1.3125 -1.34375q0.828125 -0.515625 2.03125 -0.75q0.75 -0.140625 2.84375 -0.21875q2.109375 -0.09375 3.015625 -0.453125q0.25 -0.90625 0.25 -1.515625q0 -0.765625 -0.5625 -1.21875q-0.765625 -0.609375 -2.265625 -0.609375q-1.40625 0 -2.296875 0.625q-0.890625 0.609375 -1.296875 1.765625l-2.25 -0.203125q0.6875 -1.9375 2.1875 -2.96875q1.5 -1.046875 3.765625 -1.046875q2.4375 0 3.84375 1.15625q1.09375 0.859375 1.09375 2.25q0 1.046875 -0.3125 2.421875l-0.734375 3.25q-0.34375 1.546875 -0.34375 2.53125q0 0.609375 0.28125 1.765625l-2.265625 0q-0.171875 -0.640625 -0.25 -1.625zm0.828125 -5.0q-0.46875 0.1875 -1.015625 0.28125q-0.53125 0.09375 -1.78125 0.21875q-1.953125 0.171875 -2.75 0.4375q-0.796875 0.25 -1.203125 0.84375q-0.40625 0.578125 -0.40625 1.265625q0 0.9375 0.640625 1.546875q0.65625 0.609375 1.84375 0.609375q1.109375 0 2.125 -0.578125q1.03125 -0.59375 1.609375 -1.640625q0.59375 -1.046875 0.9375 -2.984375zm4.4004517 6.625l3.78125 -18.046875l2.2187805 0l-2.3437805 11.1875l6.5000305 -6.21875l2.953125 0l-5.578125 4.875l3.375 8.203125l-2.4375 0l-2.609375 -6.71875l-2.7187805 2.34375l-0.90625 4.375l-2.234375 0z" fill-rule="nonzero"/><path fill="#000000" d="m482.6091 99.516815l17.950775 0l-8.975403 9.3980255z" fill-rule="evenodd"/><path stroke="#000000" stroke-width="1.8923884514435696" stroke-linejoin="round" stroke-linecap="butt" d="m482.6091 99.516815l17.950775 0l-8.975403 9.3980255z" fill-rule="evenodd"/><path fill="#000000" fill-opacity="0.0" d="m450.7137 299.88583l215.18112 0l0 67.24408l-215.18112 0z" fill-rule="evenodd"/><path fill="#000000" d="m525.0069 342.10266l3.34375 -16.0l-5.921875 0l0.4375 -2.046875l14.203125 0l-0.4375 2.046875l-5.875 0l-3.328125 16.0l-2.421875 0zm8.657349 0l2.734375 -13.078125l1.96875 0l-0.5625 2.671875q1.015625 -1.515625 1.984375 -2.234375q0.96875 -0.734375 1.96875 -0.734375q0.671875 0 1.640625 0.484375l-0.90625 2.0625q-0.578125 -0.421875 -1.28125 -0.421875q-1.15625 0 -2.390625 1.3125q-1.234375 1.3125 -1.9375 4.6875l-1.109375 5.25l-2.109375 0zm8.788696 -4.96875q0 -3.828125 2.25 -6.328125q1.859375 -2.078125 4.875 -2.078125q2.359375 0 3.8125 1.484375q1.453125 1.46875 1.453125 3.984375q0 2.25 -0.921875 4.203125q-0.90625 1.9375 -2.59375 2.96875q-1.671875 1.03125 -3.53125 1.03125q-1.53125 0 -2.78125 -0.65625q-1.25 -0.65625 -1.90625 -1.84375q-0.65625 -1.203125 -0.65625 -2.765625zm2.21875 -0.21875q0 1.84375 0.890625 2.8125q0.890625 0.953125 2.25 0.953125q0.71875 0 1.421875 -0.28125q0.703125 -0.296875 1.296875 -0.890625q0.609375 -0.59375 1.03125 -1.34375q0.4375 -0.765625 0.6875 -1.640625q0.390625 -1.21875 0.390625 -2.34375q0 -1.765625 -0.90625 -2.75q-0.890625 -0.984375 -2.234375 -0.984375q-1.046875 0 -1.921875 0.5q-0.859375 0.5 -1.5625 1.46875q-0.6875 0.953125 -1.015625 2.234375q-0.328125 1.265625 -0.328125 2.265625zm20.337952 2.828125q-2.359375 2.65625 -4.8125 2.65625q-1.515625 0 -2.453125 -0.859375q-0.921875 -0.875 -0.921875 -2.140625q0 -0.8125 0.421875 -2.828125l1.578125 -7.546875l2.21875 0l-1.75 8.359375q-0.21875 1.046875 -0.21875 1.625q0 0.734375 0.453125 1.15625q0.453125 0.40625 1.328125 0.40625q0.921875 0 1.8125 -0.453125q0.90625 -0.453125 1.546875 -1.21875q0.640625 -0.78125 1.0625 -1.84375q0.265625 -0.671875 0.625 -2.375l1.171875 -5.65625l2.234375 0l-2.734375 13.078125l-2.0625 0l0.5 -2.359375zm4.9785767 3.546875l2.25 0.203125q-0.03125 0.765625 0.171875 1.140625q0.21875 0.390625 0.671875 0.59375q0.609375 0.28125 1.5625 0.28125q2.03125 0 2.90625 -1.046875q0.578125 -0.703125 1.078125 -3.0625l0.21875 -1.0625q-1.734375 1.765625 -3.6875 1.765625q-1.984375 0 -3.328125 -1.453125q-1.328125 -1.46875 -1.328125 -4.140625q0 -2.203125 1.046875 -4.046875q1.0625 -1.84375 2.515625 -2.78125q1.453125 -0.953125 2.984375 -0.953125q2.578125 0 3.96875 2.4375l0.4375 -2.140625l2.046875 0l-2.640625 12.625q-0.421875 2.078125 -1.125 3.234375q-0.703125 1.171875 -1.953125 1.8125q-1.25 0.640625 -2.890625 0.640625q-1.578125 0 -2.71875 -0.40625q-1.140625 -0.40625 -1.703125 -1.1875q-0.546875 -0.78125 -0.546875 -1.796875q0 -0.296875 0.0625 -0.65625zm2.78125 -6.96875q0 1.34375 0.25 2.015625q0.375 0.953125 1.046875 1.453125q0.6875 0.484375 1.53125 0.484375q1.09375 0 2.171875 -0.765625q1.09375 -0.765625 1.765625 -2.375q0.671875 -1.625 0.671875 -3.078125q0 -1.625 -0.890625 -2.578125q-0.890625 -0.953125 -2.21875 -0.953125q-0.8125 0 -1.578125 0.4375q-0.765625 0.4375 -1.421875 1.328125q-0.65625 0.890625 -1.0 2.140625q-0.328125 1.25 -0.328125 1.890625zm11.369202 5.78125l3.765625 -18.046875l2.21875 0l-1.4375 6.921875q1.25 -1.203125 2.3125 -1.71875q1.078125 -0.53125 2.203125 -0.53125q1.625 0 2.515625 0.859375q0.90625 0.859375 0.90625 2.265625q0 0.6875 -0.390625 2.53125l-1.609375 7.71875l-2.234375 0l1.671875 -7.921875q0.359375 -1.71875 0.359375 -2.15625q0 -0.640625 -0.453125 -1.046875q-0.4375 -0.40625 -1.28125 -0.40625q-1.203125 0 -2.296875 0.640625q-1.09375 0.625 -1.71875 1.734375q-0.625 1.09375 -1.140625 3.546875l-1.171875 5.609375l-2.21875 0z" fill-rule="nonzero"/><path fill="#000000" d="m563.2889 322.224l-17.950745 0l8.975342 -9.398041z" fill-rule="evenodd"/><path stroke="#000000" stroke-width="1.8923884514435696" stroke-linejoin="round" stroke-linecap="butt" d="m563.2889 322.224l-17.950745 0l8.975342 -9.398041z" fill-rule="evenodd"/><path fill="#000000" fill-opacity="0.0" d="m293.63126 395.94162l-0.881897 -286.4882" fill-rule="evenodd"/><path stroke="#595959" stroke-width="1.8923884514435696" stroke-linejoin="round" stroke-linecap="butt" d="m293.59628 384.58734l-0.8119507 -263.77963" fill-rule="evenodd"/><path fill="#595959" stroke="#595959" stroke-width="1.8923884514435696" stroke-linecap="butt" d="m290.4706 384.597l3.1521301 8.578186l3.0992737 -8.597412z" fill-rule="evenodd"/><path fill="#595959" stroke="#595959" stroke-width="1.8923884514435696" stroke-linecap="butt" d="m295.91003 120.79809l-3.1521606 -8.578178l-3.0992737 8.59742z" fill-rule="evenodd"/><path fill="#000000" fill-opacity="0.0" d="m297.19604 110.59463l191.49606 -0.18897247" fill-rule="evenodd"/><path stroke="#595959" stroke-width="1.8923884514435696" stroke-linejoin="round" stroke-linecap="butt" stroke-dasharray="7.569553805774278,5.677165354330708" d="m297.19604 110.59463l191.49606 -0.18897247" fill-rule="evenodd"/><path fill="#000000" fill-opacity="0.0" d="m273.40005 352.56363l0 -251.1181l67.24411 0l0 251.1181z" fill-rule="evenodd"/><path fill="#000000" d="m315.61688 318.236l-18.046875 0l0 -8.0q0 -2.421875 0.484375 -3.671875q0.484375 -1.25 1.71875 -2.0q1.234375 -0.765625 2.71875 -0.765625q1.921875 0 3.234375 1.25q1.3125 1.25 1.671875 3.84375q0.46875 -0.953125 0.90625 -1.4375q0.953125 -1.046875 2.40625 -1.984375l4.90625 -3.140625l0 3.0l-3.75 2.390625q-1.625 1.046875 -2.484375 1.734375q-0.875 0.671875 -1.21875 1.203125q-0.34375 0.53125 -0.484375 1.09375q-0.078125 0.40625 -0.078125 1.328125l0 2.765625l8.015625 0l0 2.390625zm-10.078125 -2.390625l0 -5.125q0 -1.640625 -0.34375 -2.5625q-0.34375 -0.921875 -1.078125 -1.40625q-0.75 -0.484375 -1.625 -0.484375q-1.28125 0 -2.109375 0.9375q-0.828125 0.921875 -0.828125 2.9375l0 5.703125l5.984375 0zm-5.421875 -15.509033l-2.546875 0l0 -2.21875l2.546875 0l0 2.21875zm15.5 0l-13.078125 0l0 -2.21875l13.078125 0l0 2.21875zm-3.90625 -4.7121887l-0.34375 -2.1875q1.3125 -0.1875 2.015625 -1.03125q0.703125 -0.84375 0.703125 -2.359375q0 -1.515625 -0.609375 -2.25q-0.625 -0.75 -1.46875 -0.75q-0.75 0 -1.1875 0.65625q-0.28125 0.453125 -0.75 2.265625q-0.609375 2.4375 -1.0625 3.375q-0.453125 0.9375 -1.234375 1.4375q-0.796875 0.484375 -1.765625 0.484375q-0.875 0 -1.609375 -0.40625q-0.75 -0.40625 -1.25 -1.09375q-0.375 -0.515625 -0.640625 -1.40625q-0.265625 -0.890625 -0.265625 -1.90625q0 -1.546875 0.453125 -2.703125q0.4375 -1.171875 1.203125 -1.71875q0.75 -0.5625 2.015625 -0.765625l0.296875 2.15625q-1.015625 0.15625 -1.578125 0.875q-0.5625 0.703125 -0.5625 1.984375q0 1.53125 0.5 2.1875q0.5 0.65625 1.1875 0.65625q0.421875 0 0.765625 -0.28125q0.359375 -0.265625 0.59375 -0.84375q0.125 -0.328125 0.5625 -1.953125q0.640625 -2.359375 1.046875 -3.28125q0.390625 -0.9375 1.15625 -1.46875q0.765625 -0.53125 1.890625 -0.53125q1.109375 0 2.09375 0.65625q0.96875 0.640625 1.515625 1.859375q0.53125 1.21875 0.53125 2.765625q0 2.546875 -1.0625 3.890625q-1.0625 1.328125 -3.140625 1.6875zm-11.59375 -13.5l-2.546875 0l0 -2.21875l2.546875 0l0 2.21875zm15.5 0l-13.078125 0l0 -2.21875l13.078125 0l0 2.21875zm0 -5.587158l-13.078125 0l0 -2.0l1.859375 0q-2.15625 -1.4375 -2.15625 -4.15625q0 -1.1875 0.4375 -2.171875q0.421875 -1.0 1.109375 -1.484375q0.6875 -0.5 1.625 -0.703125q0.625 -0.125 2.15625 -0.125l8.046875 0l0 2.21875l-7.953125 0q-1.359375 0 -2.03125 0.265625q-0.671875 0.25 -1.0625 0.921875q-0.40625 0.65625 -0.40625 1.546875q0 1.40625 0.90625 2.4375q0.890625 1.03125 3.40625 1.03125l7.140625 0l0 2.21875zm1.078125 -13.619232l0.328125 -2.15625q1.0 -0.140625 1.453125 -0.75q0.609375 -0.828125 0.609375 -2.265625q0 -1.53125 -0.625 -2.3593597q-0.609375 -0.84375 -1.703125 -1.140625q-0.6875 -0.171875 -2.859375 -0.15625q1.71875 1.453125 1.71875 3.6093597q0 2.703125 -1.9375 4.1875q-1.953125 1.46875 -4.671875 1.46875q-1.875 0 -3.453125 -0.671875q-1.59375 -0.6875 -2.453125 -1.96875q-0.859375 -1.28125 -0.859375 -3.03125q0 -2.3124847 1.875 -3.8124847l-1.578125 0l0 -2.046875l11.3125 0q3.046875 0 4.3125 0.625q1.28125 0.625 2.015625 1.984375q0.75 1.34375 0.75 3.3124847q0 2.328125 -1.0625 3.78125q-1.046875 1.4375 -3.171875 1.390625zm-7.84375 -1.84375q2.5625 0 3.75 -1.015625q1.1875 -1.03125 1.1875 -2.5625q0 -1.5312347 -1.171875 -2.5624847q-1.1875 -1.03125 -3.703125 -1.03125q-2.390625 0 -3.609375 1.0625q-1.21875 1.0624847 -1.21875 2.5624847q0 1.484375 1.203125 2.515625q1.1875 1.03125 3.5625 1.03125zm5.15625 -28.141403q1.046875 1.234375 1.484375 2.375q0.421875 1.140625 0.421875 2.453125q0 2.15625 -1.046875 3.3125q-1.0625 1.15625 -2.703125 1.15625q-0.953125 0 -1.75 -0.4375q-0.796875 -0.4375 -1.265625 -1.140625q-0.484375 -0.71875 -0.734375 -1.609375q-0.171875 -0.640625 -0.328125 -1.96875q-0.328125 -2.6875 -0.765625 -3.953125q-0.453125 -0.015625 -0.578125 -0.015625q-1.359375 0 -1.90625 0.640625q-0.75 0.84375 -0.75 2.515625q0 1.5625 0.546875 2.3125q0.546875 0.75 1.9375 1.109375l-0.296875 2.15625q-1.390625 -0.296875 -2.25 -0.96875q-0.859375 -0.671875 -1.3125 -1.953125q-0.46875 -1.28125 -0.46875 -2.96875q0 -1.671875 0.40625 -2.71875q0.390625 -1.046875 0.984375 -1.53125q0.59375 -0.5 1.5 -0.703125q0.578125 -0.109375 2.046875 -0.109375l2.953125 0q3.09375 0 3.921875 -0.140625q0.8125 -0.140625 1.5625 -0.5625l0 2.3125q-0.6875 0.34375 -1.609375 0.4375zm-4.953125 0.1875q0.484375 1.21875 0.84375 3.625q0.1875 1.359375 0.4375 1.9375q0.25 0.5625 0.71875 0.875q0.46875 0.296875 1.046875 0.296875q0.890625 0 1.484375 -0.671875q0.59375 -0.671875 0.59375 -1.953125q0 -1.28125 -0.5625 -2.28125q-0.5625 -1.0 -1.53125 -1.46875q-0.75 -0.359375 -2.21875 -0.359375l-0.8125 0zm6.5625 -5.666092l-13.078125 0l0 -1.984375l1.828125 0q-0.953125 -0.625 -1.53125 -1.640625q-0.59375 -1.03125 -0.59375 -2.328125q0 -1.453125 0.609375 -2.375q0.59375 -0.9375 1.6875 -1.3125q-2.296875 -1.5625 -2.296875 -4.046875q0 -1.9375 1.078125 -2.984375q1.078125 -1.046875 3.3125 -1.046875l8.984375 0l0 2.203125l-8.234375 0q-1.328125 0 -1.90625 0.21875q-0.59375 0.203125 -0.953125 0.78125q-0.359375 0.5625 -0.359375 1.328125q0 1.375 0.921875 2.28125q0.921875 0.90625 2.9375 0.90625l7.59375 0l0 2.21875l-8.5 0q-1.46875 0 -2.203125 0.546875q-0.75 0.546875 -0.75 1.765625q0 0.9375 0.5 1.734375q0.484375 0.796875 1.4375 1.15625q0.9375 0.359375 2.734375 0.359375l6.78125 0l0 2.21875zm5.015625 -21.007416l-18.09375 0l0 -2.03125l1.703125 0q-1.0 -0.703125 -1.5 -1.59375q-0.5 -0.90625 -0.5 -2.1875q0 -1.6875 0.859375 -2.953125q0.859375 -1.28125 2.4375 -1.9375q1.5625 -0.65625 3.4375 -0.65625q2.015625 0 3.625 0.71875q1.59375 0.71875 2.453125 2.09375q0.859375 1.375 0.859375 2.890625q0 1.109375 -0.46875 2.0q-0.46875 0.875 -1.1875 1.4375l6.375 0l0 2.21875zm-11.484375 -2.015625q2.53125 0 3.734375 -1.015625q1.203125 -1.03125 1.203125 -2.484375q0 -1.46875 -1.25 -2.515625q-1.25 -1.0625 -3.875 -1.0625q-2.5 0 -3.734375 1.03125q-1.25 1.03125 -1.25 2.453125q0 1.421875 1.328125 2.515625q1.328125 1.078125 3.84375 1.078125zm6.46875 -11.962967l-18.046875 0l0 -2.21875l18.046875 0l0 2.21875zm-15.5 -5.6652985l-2.546875 0l0 -2.21875l2.546875 0l0 2.21875zm15.5 0l-13.078125 0l0 -2.21875l13.078125 0l0 2.21875zm-1.984375 -10.430923l1.953125 -0.328125q0.203125 0.9375 0.203125 1.6875q0 1.203125 -0.375 1.875q-0.390625 0.65625 -1.0 0.9375q-0.625 0.265625 -2.625 0.265625l-7.53125 0l0 1.625l-1.71875 0l0 -1.625l-3.234375 0l-1.328125 -2.203125l4.5625 0l0 -2.234375l1.71875 0l0 2.234375l7.65625 0q0.9375 0 1.21875 -0.109375q0.265625 -0.125 0.4375 -0.390625q0.15625 -0.265625 0.15625 -0.765625q0 -0.359375 -0.09375 -0.96875zm1.984375 -10.740952l-1.921875 0q2.21875 1.53125 2.21875 4.15625q0 1.15625 -0.4375 2.15625q-0.453125 1.0 -1.125 1.484375q-0.671875 0.484375 -1.640625 0.6875q-0.65625 0.140625 -2.0625 0.140625l-8.109375 0l0 -2.21875l7.25 0q1.734375 0 2.34375 -0.140625q0.875 -0.203125 1.375 -0.875q0.5 -0.6875 0.5 -1.6875q0 -1.0 -0.515625 -1.859375q-0.515625 -0.875 -1.390625 -1.234375q-0.875 -0.375 -2.5625 -0.375l-7.0 0l0 -2.21875l13.078125 0l0 1.984375zm0 -13.931717l-1.65625 0q1.953125 1.234375 1.953125 3.65625q0 1.5625 -0.859375 2.875q-0.859375 1.3125 -2.40625 2.03125q-1.546875 0.71875 -3.5625 0.71875q-1.953125 0 -3.546875 -0.65625q-1.59375 -0.65625 -2.4375 -1.953125q-0.859375 -1.3125 -0.859375 -2.921875q0 -1.1875 0.5 -2.109375q0.5 -0.921875 1.296875 -1.5l-6.46875 0l0 -2.203125l18.046875 0l0 2.0625zm-6.53125 7.0q2.515625 0 3.765625 -1.0625q1.234375 -1.0625 1.234375 -2.5q0 -1.453125 -1.1875 -2.46875q-1.1875 -1.015625 -3.625 -1.015625q-2.6875 0 -3.9375 1.046875q-1.25 1.03125 -1.25 2.546875q0 1.46875 1.203125 2.46875q1.203125 0.984375 3.796875 0.984375zm2.3125 -21.494217l0.296875 -2.296875q2.0 0.546875 3.109375 2.015625q1.109375 1.453125 1.109375 3.734375q0 2.875 -1.765625 4.5625q-1.765625 1.671875 -4.953125 1.671875q-3.3125 0 -5.125 -1.703125q-1.828125 -1.703125 -1.828125 -4.40625q0 -2.625 1.796875 -4.28125q1.78125 -1.671875 5.015625 -1.671875q0.203125 0 0.59375 0.015625l0 9.75q2.15625 -0.125 3.296875 -1.21875q1.140625 -1.09375 1.140625 -2.734375q0 -1.21875 -0.640625 -2.078125q-0.640625 -0.859375 -2.046875 -1.359375zm-3.578125 7.265625l0 -7.296875q-1.640625 0.15625 -2.46875 0.84375q-1.28125 1.046875 -1.28125 2.734375q0 1.53125 1.03125 2.578125q1.015625 1.03125 2.71875 1.140625z" fill-rule="nonzero"/><path fill="#000000" fill-opacity="0.0" d="m536.6369 305.37704l0 -249.66931l67.24408 0l0 249.66931z" fill-rule="evenodd"/><path fill="#000000" d="m578.85376 272.50693l-18.046875 0l0 -6.21875q0 -2.09375 0.25 -3.203125q0.359375 -1.546875 1.296875 -2.65625q1.203125 -1.421875 3.09375 -2.125q1.875 -0.71875 4.28125 -0.71875q2.0625 0 3.65625 0.484375q1.578125 0.484375 2.625 1.234375q1.03125 0.75 1.640625 1.640625q0.59375 0.890625 0.90625 2.15625q0.296875 1.265625 0.296875 2.90625l0 6.5zm-2.125 -2.375l0 -3.859375q0 -1.78125 -0.328125 -2.796875q-0.34375 -1.015625 -0.953125 -1.625q-0.84375 -0.84375 -2.28125 -1.3125q-1.4375 -0.484375 -3.46875 -0.484375q-2.84375 0 -4.359375 0.9375q-1.515625 0.921875 -2.03125 2.25q-0.375 0.96875 -0.375 3.09375l0 3.796875l13.796875 0zm-2.09375 -24.493408l0.296875 -2.296875q2.0 0.546875 3.109375 2.015625q1.109375 1.453125 1.109375 3.734375q0 2.875 -1.765625 4.5625q-1.765625 1.671875 -4.953125 1.671875q-3.3125 0 -5.125 -1.703125q-1.828125 -1.703125 -1.828125 -4.40625q0 -2.625 1.796875 -4.28125q1.78125 -1.671875 5.015625 -1.671875q0.203125 0 0.59375 0.015625l0 9.75q2.15625 -0.125 3.296875 -1.21875q1.140625 -1.09375 1.140625 -2.734375q0 -1.21875 -0.640625 -2.078125q-0.640625 -0.859375 -2.046875 -1.359375zm-3.578125 7.265625l0 -7.296875q-1.640625 0.15625 -2.46875 0.84375q-1.28125 1.046875 -1.28125 2.734375q0 1.53125 1.03125 2.578125q1.015625 1.03125 2.71875 1.140625zm3.0 -20.884842l0.296875 -2.171875q2.25 0.359375 3.53125 1.828125q1.265625 1.46875 1.265625 3.609375q0 2.6875 -1.75 4.328125q-1.765625 1.625 -5.03125 1.625q-2.125 0 -3.703125 -0.703125q-1.59375 -0.703125 -2.390625 -2.140625q-0.796875 -1.4375 -0.796875 -3.109375q0 -2.140625 1.078125 -3.484375q1.078125 -1.359375 3.0625 -1.75l0.328125 2.15625q-1.3125 0.3125 -1.96875 1.09375q-0.671875 0.78125 -0.671875 1.890625q0 1.671875 1.203125 2.71875q1.1875 1.046875 3.796875 1.046875q2.625 0 3.828125 -1.0q1.1875 -1.015625 1.1875 -2.640625q0 -1.3125 -0.796875 -2.1875q-0.796875 -0.875 -2.46875 -1.109375zm3.1875 -12.609375q1.046875 1.234375 1.484375 2.375q0.421875 1.140625 0.421875 2.453125q0 2.15625 -1.046875 3.3125q-1.0625 1.15625 -2.703125 1.15625q-0.953125 0 -1.75 -0.4375q-0.796875 -0.4375 -1.265625 -1.140625q-0.484375 -0.71875 -0.734375 -1.609375q-0.171875 -0.640625 -0.328125 -1.96875q-0.328125 -2.6875 -0.765625 -3.953125q-0.453125 -0.015625 -0.578125 -0.015625q-1.359375 0 -1.90625 0.640625q-0.75 0.84375 -0.75 2.515625q0 1.5625 0.546875 2.3125q0.546875 0.75 1.9375 1.109375l-0.296875 2.15625q-1.390625 -0.296875 -2.25 -0.96875q-0.859375 -0.671875 -1.3125 -1.953125q-0.46875 -1.28125 -0.46875 -2.96875q0 -1.671875 0.40625 -2.71875q0.390625 -1.046875 0.984375 -1.53125q0.59375 -0.5 1.5 -0.703125q0.578125 -0.109375 2.046875 -0.109375l2.953125 0q3.09375 0 3.921875 -0.140625q0.8125 -0.140625 1.5625 -0.5625l0 2.3125q-0.6875 0.34375 -1.609375 0.4375zm-4.953125 0.1875q0.484375 1.21875 0.84375 3.625q0.1875 1.359375 0.4375 1.9375q0.25 0.5625 0.71875 0.875q0.46875 0.296875 1.046875 0.296875q0.890625 0 1.484375 -0.671875q0.59375 -0.671875 0.59375 -1.953125q0 -1.28125 -0.5625 -2.28125q-0.5625 -1.0 -1.53125 -1.46875q-0.75 -0.359375 -2.21875 -0.359375l-0.8125 0zm11.59375 -5.572342l-2.078125 0.25q0.203125 -0.734375 0.203125 -1.265625q0 -0.75 -0.25 -1.1875q-0.25 -0.453125 -0.6875 -0.734375q-0.328125 -0.203125 -1.65625 -0.671875q-0.1875 -0.0625 -0.53125 -0.203125l-13.109375 4.96875l0 -2.390625l7.578125 -2.71875q1.4375 -0.53125 3.03125 -0.953125q-1.53125 -0.375 -2.984375 -0.90625l-7.625 -2.796875l0 -2.21875l13.296875 4.984375q2.15625 0.796875 2.96875 1.234375q1.09375 0.59375 1.609375 1.359375q0.515625 0.765625 0.515625 1.8125q0 0.640625 -0.28125 1.4375zm-6.640625 -28.256577q1.046875 1.234375 1.484375 2.375q0.421875 1.140625 0.421875 2.453125q0 2.15625 -1.046875 3.3125q-1.0625 1.15625 -2.703125 1.15625q-0.953125 0 -1.75 -0.4375q-0.796875 -0.4375 -1.265625 -1.140625q-0.484375 -0.71875 -0.734375 -1.609375q-0.171875 -0.640625 -0.328125 -1.96875q-0.328125 -2.6875 -0.765625 -3.953125q-0.453125 -0.015625 -0.578125 -0.015625q-1.359375 0 -1.90625 0.640625q-0.75 0.84375 -0.75 2.515625q0 1.5625 0.546875 2.3125q0.546875 0.75 1.9375 1.109375l-0.296875 2.15625q-1.390625 -0.296875 -2.25 -0.96875q-0.859375 -0.671875 -1.3125 -1.953125q-0.46875 -1.28125 -0.46875 -2.96875q0 -1.671875 0.40625 -2.71875q0.390625 -1.046875 0.984375 -1.53125q0.59375 -0.5 1.5 -0.703125q0.578125 -0.109375 2.046875 -0.109375l2.953125 0q3.09375 0 3.921875 -0.140625q0.8125 -0.140625 1.5625 -0.5625l0 2.3125q-0.6875 0.34375 -1.609375 0.4375zm-4.953125 0.1875q0.484375 1.21875 0.84375 3.625q0.1875 1.359375 0.4375 1.9375q0.25 0.5625 0.71875 0.875q0.46875 0.296875 1.046875 0.296875q0.890625 0 1.484375 -0.671875q0.59375 -0.671875 0.59375 -1.953125q0 -1.28125 -0.5625 -2.28125q-0.5625 -1.0 -1.53125 -1.46875q-0.75 -0.359375 -2.21875 -0.359375l-0.8125 0zm6.5625 -5.666092l-13.078125 0l0 -1.984375l1.828125 0q-0.953125 -0.625 -1.53125 -1.6406403q-0.59375 -1.03125 -0.59375 -2.328125q0 -1.453125 0.609375 -2.375q0.59375 -0.9375 1.6875 -1.3125q-2.296875 -1.5625 -2.296875 -4.046875q0 -1.9375 1.078125 -2.984375q1.078125 -1.046875 3.3125 -1.046875l8.984375 0l0 2.203125l-8.234375 0q-1.328125 0 -1.90625 0.21875q-0.59375 0.203125 -0.953125 0.78125q-0.359375 0.5625 -0.359375 1.328125q0 1.375 0.921875 2.28125q0.921875 0.90625 2.9375 0.90625l7.59375 0l0 2.21875l-8.5 0q-1.46875 0 -2.203125 0.546875q-0.75 0.546875 -0.75 1.765625q0 0.9375 0.5 1.734375q0.484375 0.796875 1.4375 1.1562653q0.9375 0.359375 2.734375 0.359375l6.78125 0l0 2.21875zm5.015625 -21.007431l-18.09375 0l0 -2.03125l1.703125 0q-1.0 -0.703125 -1.5 -1.59375q-0.5 -0.90625 -0.5 -2.1875q0 -1.6875 0.859375 -2.953125q0.859375 -1.28125 2.4375 -1.9375q1.5625 -0.65625 3.4375 -0.65625q2.015625 0 3.625 0.71875q1.59375 0.71875 2.453125 2.09375q0.859375 1.375 0.859375 2.890625q0 1.109375 -0.46875 2.0q-0.46875 0.875 -1.1875 1.4375l6.375 0l0 2.21875zm-11.484375 -2.015625q2.53125 0 3.734375 -1.015625q1.203125 -1.03125 1.203125 -2.484375q0 -1.46875 -1.25 -2.515625q-1.25 -1.0625 -3.875 -1.0625q-2.5 0 -3.734375 1.03125q-1.25 1.03125 -1.25 2.453125q0 1.421875 1.328125 2.515625q1.328125 1.078125 3.84375 1.078125zm6.46875 -11.962952l-18.046875 0l0 -2.21875l18.046875 0l0 2.21875zm-15.5 -5.6653137l-2.546875 0l0 -2.21875l2.546875 0l0 2.21875zm15.5 0l-13.078125 0l0 -2.21875l13.078125 0l0 2.21875zm-1.984375 -10.430908l1.953125 -0.328125q0.203125 0.9375 0.203125 1.6875q0 1.203125 -0.375 1.875q-0.390625 0.65625 -1.0 0.9375q-0.625 0.265625 -2.625 0.265625l-7.53125 0l0 1.625l-1.71875 0l0 -1.625l-3.234375 0l-1.328125 -2.203125l4.5625 0l0 -2.234375l1.71875 0l0 2.234375l7.65625 0q0.9375 0 1.21875 -0.109375q0.265625 -0.125 0.4375 -0.390625q0.15625 -0.265625 0.15625 -0.765625q0 -0.359375 -0.09375 -0.96875zm1.984375 -10.740959l-1.921875 0q2.21875 1.53125 2.21875 4.15625q0 1.15625 -0.4375 2.15625q-0.453125 1.0 -1.125 1.484375q-0.671875 0.484375 -1.640625 0.6875q-0.65625 0.140625 -2.0625 0.140625l-8.109375 0l0 -2.21875l7.25 0q1.734375 0 2.34375 -0.140625q0.875 -0.203125 1.375 -0.875q0.5 -0.6875 0.5 -1.6875q0 -1.0 -0.515625 -1.859375q-0.515625 -0.875 -1.390625 -1.234375q-0.875 -0.375 -2.5625 -0.375l-7.0 0l0 -2.21875l13.078125 0l0 1.984375zm0 -13.931702l-1.65625 0q1.953125 1.234375 1.953125 3.65625q0 1.5625 -0.859375 2.875q-0.859375 1.3125 -2.40625 2.03125q-1.546875 0.71875 -3.5625 0.71875q-1.953125 0 -3.546875 -0.65625q-1.59375 -0.65625 -2.4375 -1.953125q-0.859375 -1.3125 -0.859375 -2.921875q0 -1.1875 0.5 -2.109375q0.5 -0.921875 1.296875 -1.5l-6.46875 0l0 -2.203125l18.046875 0l0 2.0625zm-6.53125 7.0q2.515625 0 3.765625 -1.0625q1.234375 -1.0625 1.234375 -2.5q0 -1.453125 -1.1875 -2.46875q-1.1875 -1.015625 -3.625 -1.015625q-2.6875 0 -3.9375 1.046875q-1.25 1.03125 -1.25 2.546875q0 1.46875 1.203125 2.46875q1.203125 0.984375 3.796875 0.984375zm2.3125 -21.494232l0.296875 -2.296875q2.0 0.546875 3.109375 2.015625q1.109375 1.453125 1.109375 3.734375q0 2.875 -1.765625 4.5625q-1.765625 1.671875 -4.953125 1.671875q-3.3125 0 -5.125 -1.703125q-1.828125 -1.703125 -1.828125 -4.40625q0 -2.625 1.796875 -4.28125q1.78125 -1.671875 5.015625 -1.671875q0.203125 0 0.59375 0.015625l0 9.75q2.15625 -0.125 3.296875 -1.21875q1.140625 -1.09375 1.140625 -2.734375q0 -1.21875 -0.640625 -2.078125q-0.640625 -0.859375 -2.046875 -1.359375zm-3.578125 7.265625l0 -7.296875q-1.640625 0.15625 -2.46875 0.84375q-1.28125 1.046875 -1.28125 2.734375q0 1.53125 1.03125 2.578125q1.015625 1.03125 2.71875 1.140625z" fill-rule="nonzero"/><path fill="#000000" fill-opacity="0.0" d="m296.79858 418.57962l199.2756 -0.06298828" fill-rule="evenodd"/><path stroke="#595959" stroke-width="1.8923884514435696" stroke-linejoin="round" stroke-linecap="butt" d="m308.15292 418.57602l176.56693 -0.055755615" fill-rule="evenodd"/><path fill="#595959" stroke="#595959" stroke-width="1.8923884514435696" stroke-linecap="butt" d="m308.15195 415.45035l-8.586853 3.128418l8.588806 3.1230164z" fill-rule="evenodd"/><path fill="#595959" stroke="#595959" stroke-width="1.8923884514435696" stroke-linecap="butt" d="m484.72086 421.64597l8.586853 -3.1284485l-8.588837 -3.1229858z" fill-rule="evenodd"/><path fill="#000000" fill-opacity="0.0" d="m494.91785 418.66107l59.40155 0.28347778" fill-rule="evenodd"/><path stroke="#595959" stroke-width="1.8923884514435696" stroke-linejoin="round" stroke-linecap="butt" d="m506.27206 418.71527l36.693146 0.17510986" fill-rule="evenodd"/><path fill="#595959" stroke="#595959" stroke-width="1.8923884514435696" stroke-linecap="butt" d="m506.287 415.5896l-8.602661 3.0846863l8.572815 3.1666565z" fill-rule="evenodd"/><path fill="#595959" stroke="#595959" stroke-width="1.8923884514435696" stroke-linecap="butt" d="m542.9503 422.01605l8.602661 -3.0846863l-8.572815 -3.166687z" fill-rule="evenodd"/><path fill="#000000" fill-opacity="0.0" d="m290.72906 407.76352l215.18109 0l0 97.82675l-215.18109 0z" fill-rule="evenodd"/><path fill="#000000" d="m365.26495 449.98035l0 -18.046875l8.0 0q2.421875 0 3.671875 0.484375q1.25 0.484375 2.0 1.71875q0.765625 1.234375 0.765625 2.71875q0 1.921875 -1.25 3.234375q-1.25 1.3125 -3.84375 1.671875q0.953125 0.46875 1.4375 0.90625q1.046875 0.953125 1.984375 2.40625l3.140625 4.90625l-3.0 0l-2.390625 -3.75q-1.046875 -1.625 -1.734375 -2.484375q-0.671875 -0.875 -1.203125 -1.21875q-0.53125 -0.34375 -1.09375 -0.484375q-0.40625 -0.078125 -1.328125 -0.078125l-2.765625 0l0 8.015625l-2.390625 0zm2.390625 -10.078125l5.125 0q1.640625 0 2.5625 -0.34375q0.921875 -0.34375 1.40625 -1.078125q0.484375 -0.75 0.484375 -1.625q0 -1.28125 -0.9375 -2.109375q-0.921875 -0.828125 -2.9375 -0.828125l-5.703125 0l0 5.984375zm15.509033 -5.421875l0 -2.546875l2.21875 0l0 2.546875l-2.21875 0zm0 15.5l0 -13.078125l2.21875 0l0 13.078125l-2.21875 0zm4.7121887 -3.90625l2.1875 -0.34375q0.1875 1.3125 1.03125 2.015625q0.84375 0.703125 2.359375 0.703125q1.515625 0 2.25 -0.609375q0.75 -0.625 0.75 -1.46875q0 -0.75 -0.65625 -1.1875q-0.453125 -0.28125 -2.265625 -0.75q-2.4375 -0.609375 -3.375 -1.0625q-0.9375 -0.453125 -1.4375 -1.234375q-0.484375 -0.796875 -0.484375 -1.765625q0 -0.875 0.40625 -1.609375q0.40625 -0.75 1.09375 -1.25q0.515625 -0.375 1.40625 -0.640625q0.890625 -0.265625 1.90625 -0.265625q1.546875 0 2.703125 0.453125q1.171875 0.4375 1.71875 1.203125q0.5625 0.75 0.765625 2.015625l-2.15625 0.296875q-0.15625 -1.015625 -0.875 -1.578125q-0.703125 -0.5625 -1.984375 -0.5625q-1.53125 0 -2.1875 0.5q-0.65625 0.5 -0.65625 1.1875q0 0.421875 0.28125 0.765625q0.265625 0.359375 0.84375 0.59375q0.328125 0.125 1.953125 0.5625q2.359375 0.640625 3.28125 1.046875q0.9375 0.390625 1.46875 1.15625q0.53125 0.765625 0.53125 1.890625q0 1.109375 -0.65625 2.09375q-0.640625 0.96875 -1.859375 1.515625q-1.21875 0.53125 -2.765625 0.53125q-2.546875 0 -3.890625 -1.0625q-1.328125 -1.0625 -1.6875 -3.140625zm13.5 -11.59375l0 -2.546875l2.21875 0l0 2.546875l-2.21875 0zm0 15.5l0 -13.078125l2.21875 0l0 13.078125l-2.21875 0zm5.587158 0l0 -13.078125l2.0 0l0 1.859375q1.4375 -2.15625 4.15625 -2.15625q1.1875 0 2.171875 0.4375q1.0 0.421875 1.484375 1.109375q0.5 0.6875 0.703125 1.625q0.125 0.625 0.125 2.15625l0 8.046875l-2.21875 0l0 -7.953125q0 -1.359375 -0.265625 -2.03125q-0.25 -0.671875 -0.921875 -1.0625q-0.65625 -0.40625 -1.546875 -0.40625q-1.40625 0 -2.4375 0.90625q-1.03125 0.890625 -1.03125 3.40625l0 7.140625l-2.21875 0zm13.619232 1.078125l2.15625 0.328125q0.140625 1.0 0.75 1.453125q0.828125 0.609375 2.265625 0.609375q1.53125 0 2.359375 -0.625q0.84375 -0.609375 1.140625 -1.703125q0.171875 -0.6875 0.15625 -2.859375q-1.453125 1.71875 -3.609375 1.71875q-2.703125 0 -4.1875 -1.9375q-1.46875 -1.953125 -1.46875 -4.671875q0 -1.875 0.671875 -3.453125q0.6875 -1.59375 1.96875 -2.453125q1.28125 -0.859375 3.03125 -0.859375q2.3125 0 3.8125 1.875l0 -1.578125l2.046875 0l0 11.3125q0 3.046875 -0.625 4.3125q-0.625 1.28125 -1.984375 2.015625q-1.34375 0.75 -3.3125 0.75q-2.328125 0 -3.78125 -1.0625q-1.4375 -1.046875 -1.390625 -3.171875zm1.84375 -7.84375q0 2.5625 1.015625 3.75q1.03125 1.1875 2.5625 1.1875q1.53125 0 2.5625 -1.171875q1.03125 -1.1875 1.03125 -3.703125q0 -2.390625 -1.0625 -3.609375q-1.0625 -1.21875 -2.5625 -1.21875q-1.484375 0 -2.515625 1.203125q-1.03125 1.1875 -1.03125 3.5625z" fill-rule="nonzero"/><path fill="#000000" d="m362.89285 480.25137l0 -1.65625q-1.234375 1.953125 -3.65625 1.953125q-1.5625 0 -2.875 -0.859375q-1.3125 -0.859375 -2.03125 -2.40625q-0.71875 -1.546875 -0.71875 -3.5625q0 -1.953125 0.65625 -3.546875q0.65625 -1.59375 1.953125 -2.4375q1.3125 -0.859375 2.921875 -0.859375q1.1875 0 2.109375 0.5q0.921875 0.5 1.5 1.296875l0 -6.46875l2.203125 0l0 18.046875l-2.0625 0zm-7.0 -6.53125q0 2.515625 1.0625 3.765625q1.0625 1.234375 2.5 1.234375q1.453125 0 2.46875 -1.1875q1.015625 -1.1875 1.015625 -3.625q0 -2.6875 -1.046875 -3.9375q-1.03125 -1.25 -2.546875 -1.25q-1.46875 0 -2.46875 1.203125q-0.984375 1.203125 -0.984375 3.796875zm21.119232 6.53125l0 -1.921875q-1.53125 2.21875 -4.15625 2.21875q-1.15625 0 -2.15625 -0.4375q-1.0 -0.453125 -1.484375 -1.125q-0.484375 -0.671875 -0.6875 -1.640625q-0.140625 -0.65625 -0.140625 -2.0625l0 -8.109375l2.21875 0l0 7.25q0 1.734375 0.140625 2.34375q0.203125 0.875 0.875 1.375q0.6875 0.5 1.6875 0.5q1.0 0 1.859375 -0.515625q0.875 -0.515625 1.234375 -1.390625q0.375 -0.875 0.375 -2.5625l0 -7.0l2.21875 0l0 13.078125l-1.984375 0zm5.4317017 0l0 -13.078125l1.984375 0l0 1.984375q0.765625 -1.390625 1.40625 -1.828125q0.65625 -0.453125 1.4375 -0.453125q1.109375 0 2.28125 0.71875l-0.765625 2.046875q-0.8125 -0.46875 -1.625 -0.46875q-0.734375 0 -1.3125 0.4375q-0.578125 0.4375 -0.828125 1.203125q-0.359375 1.1875 -0.359375 2.59375l0 6.84375l-2.21875 0zm16.96054 -1.609375q-1.234375 1.046875 -2.375 1.484375q-1.140625 0.421875 -2.453125 0.421875q-2.15625 0 -3.3125 -1.046875q-1.15625 -1.0625 -1.15625 -2.703125q0 -0.953125 0.4375 -1.75q0.4375 -0.796875 1.140625 -1.265625q0.71875 -0.484375 1.609375 -0.734375q0.640625 -0.171875 1.96875 -0.328125q2.6875 -0.328125 3.953125 -0.765625q0.015625 -0.453125 0.015625 -0.578125q0 -1.359375 -0.640625 -1.90625q-0.84375 -0.75 -2.515625 -0.75q-1.5625 0 -2.3125 0.546875q-0.75 0.546875 -1.109375 1.9375l-2.15625 -0.296875q0.296875 -1.390625 0.96875 -2.25q0.671875 -0.859375 1.953125 -1.3125q1.28125 -0.46875 2.96875 -0.46875q1.671875 0 2.71875 0.40625q1.046875 0.390625 1.53125 0.984375q0.5 0.59375 0.703125 1.5q0.109375 0.578125 0.109375 2.046875l0 2.953125q0 3.09375 0.140625 3.921875q0.140625 0.8125 0.5625 1.5625l-2.3125 0q-0.34375 -0.6875 -0.4375 -1.609375zm-0.1875 -4.953125q-1.21875 0.484375 -3.625 0.84375q-1.359375 0.1875 -1.9375 0.4375q-0.5625 0.25 -0.875 0.71875q-0.296875 0.46875 -0.296875 1.046875q0 0.890625 0.671875 1.484375q0.671875 0.59375 1.953125 0.59375q1.28125 0 2.28125 -0.5625q1.0 -0.5625 1.46875 -1.53125q0.359375 -0.75 0.359375 -2.21875l0 -0.8125zm10.509857 4.578125l0.328125 1.953125q-0.9375 0.203125 -1.6875 0.203125q-1.203125 0 -1.875 -0.375q-0.65625 -0.390625 -0.9375 -1.0q-0.265625 -0.625 -0.265625 -2.625l0 -7.53125l-1.625 0l0 -1.71875l1.625 0l0 -3.234375l2.203125 -1.328125l0 4.5625l2.234375 0l0 1.71875l-2.234375 0l0 7.65625q0 0.9375 0.109375 1.21875q0.125 0.265625 0.390625 0.4375q0.265625 0.15625 0.765625 0.15625q0.359375 0 0.96875 -0.09375zm2.1784363 -13.515625l0 -2.546875l2.21875 0l0 2.546875l-2.21875 0zm0 15.5l0 -13.078125l2.21875 0l0 13.078125l-2.21875 0zm4.7746887 -6.53125q0 -3.640625 2.015625 -5.390625q1.6875 -1.453125 4.109375 -1.453125q2.703125 0 4.40625 1.765625q1.71875 1.765625 1.71875 4.890625q0 2.515625 -0.765625 3.96875q-0.75 1.4375 -2.203125 2.25q-1.4375 0.796875 -3.15625 0.796875q-2.75 0 -4.4375 -1.75q-1.6875 -1.765625 -1.6875 -5.078125zm2.265625 0q0 2.5 1.09375 3.75q1.109375 1.25 2.765625 1.25q1.65625 0 2.75 -1.25q1.09375 -1.25 1.09375 -3.828125q0 -2.421875 -1.109375 -3.671875q-1.09375 -1.25 -2.734375 -1.25q-1.65625 0 -2.765625 1.25q-1.09375 1.234375 -1.09375 3.75zm12.572327 6.53125l0 -13.078125l2.0 0l0 1.859375q1.4375 -2.15625 4.15625 -2.15625q1.1875 0 2.171875 0.4375q1.0 0.421875 1.484375 1.109375q0.5 0.6875 0.703125 1.625q0.125 0.625 0.125 2.15625l0 8.046875l-2.21875 0l0 -7.953125q0 -1.359375 -0.265625 -2.03125q-0.25 -0.671875 -0.921875 -1.0625q-0.65625 -0.40625 -1.546875 -0.40625q-1.40625 0 -2.4375 0.90625q-1.03125 0.890625 -1.03125 3.40625l0 7.140625l-2.21875 0z" fill-rule="nonzero"/><path fill="#000000" fill-opacity="0.0" d="m445.36172 407.76352l158.51968 0l0 97.82675l-158.51968 0z" fill-rule="evenodd"/><path fill="#000000" d="m490.83377 449.98035l0 -18.046875l6.21875 0q2.09375 0 3.203125 0.25q1.546875 0.359375 2.65625 1.296875q1.421875 1.203125 2.125 3.09375q0.71875 1.875 0.71875 4.28125q0 2.0625 -0.484375 3.65625q-0.484375 1.578125 -1.234375 2.625q-0.75 1.03125 -1.640625 1.640625q-0.890625 0.59375 -2.15625 0.90625q-1.265625 0.296875 -2.90625 0.296875l-6.5 0zm2.375 -2.125l3.859375 0q1.78125 0 2.796875 -0.328125q1.015625 -0.34375 1.625 -0.953125q0.84375 -0.84375 1.3125 -2.28125q0.484375 -1.4375 0.484375 -3.46875q0 -2.84375 -0.9375 -4.359375q-0.921875 -1.515625 -2.25 -2.03125q-0.96875 -0.375 -3.09375 -0.375l-3.796875 0l0 13.796875zm24.493439 -2.09375l2.296875 0.296875q-0.546875 2.0 -2.015625 3.109375q-1.453125 1.109375 -3.734375 1.109375q-2.8750305 0 -4.5625305 -1.765625q-1.671875 -1.765625 -1.671875 -4.953125q0 -3.3125 1.703125 -5.125q1.703125 -1.828125 4.4062805 -1.828125q2.625 0 4.28125 1.796875q1.671875 1.78125 1.671875 5.015625q0 0.203125 -0.015625 0.59375l-9.7500305 0q0.125 2.15625 1.21875 3.296875q1.0937805 1.140625 2.7344055 1.140625q1.21875 0 2.078125 -0.640625q0.859375 -0.640625 1.359375 -2.046875zm-7.2656555 -3.578125l7.2969055 0q-0.15625 -1.640625 -0.84375 -2.46875q-1.046875 -1.28125 -2.734375 -1.28125q-1.53125 0 -2.5781555 1.03125q-1.03125 1.015625 -1.140625 2.71875zm20.884857 3.0l2.171875 0.296875q-0.359375 2.25 -1.828125 3.53125q-1.46875 1.265625 -3.609375 1.265625q-2.6875 0 -4.328125 -1.75q-1.625 -1.765625 -1.625 -5.03125q0 -2.125 0.703125 -3.703125q0.703125 -1.59375 2.140625 -2.390625q1.4375 -0.796875 3.109375 -0.796875q2.140625 0 3.484375 1.078125q1.359375 1.078125 1.75 3.0625l-2.15625 0.328125q-0.3125 -1.3125 -1.09375 -1.96875q-0.78125 -0.671875 -1.890625 -0.671875q-1.671875 0 -2.71875 1.203125q-1.046875 1.1875 -1.046875 3.796875q0 2.625 1.0 3.828125q1.015625 1.1875 2.640625 1.1875q1.3125 0 2.1875 -0.796875q0.875 -0.796875 1.109375 -2.46875zm12.609375 3.1875q-1.234375 1.046875 -2.375 1.484375q-1.140625 0.421875 -2.453125 0.421875q-2.15625 0 -3.3125 -1.046875q-1.15625 -1.0625 -1.15625 -2.703125q0 -0.953125 0.4375 -1.75q0.4375 -0.796875 1.140625 -1.265625q0.71875 -0.484375 1.609375 -0.734375q0.640625 -0.171875 1.96875 -0.328125q2.6875 -0.328125 3.953125 -0.765625q0.015625 -0.453125 0.015625 -0.578125q0 -1.359375 -0.640625 -1.90625q-0.84375 -0.75 -2.515625 -0.75q-1.5625 0 -2.3125 0.546875q-0.75 0.546875 -1.109375 1.9375l-2.15625 -0.296875q0.296875 -1.390625 0.96875 -2.25q0.671875 -0.859375 1.953125 -1.3125q1.28125 -0.46875 2.96875 -0.46875q1.671875 0 2.71875 0.40625q1.046875 0.390625 1.53125 0.984375q0.5 0.59375 0.703125 1.5q0.109375 0.578125 0.109375 2.046875l0 2.953125q0 3.09375 0.140625 3.921875q0.140625 0.8125 0.5625 1.5625l-2.3125 0q-0.34375 -0.6875 -0.4375 -1.609375zm-0.1875 -4.953125q-1.21875 0.484375 -3.625 0.84375q-1.359375 0.1875 -1.9375 0.4375q-0.5625 0.25 -0.875 0.71875q-0.296875 0.46875 -0.296875 1.046875q0 0.890625 0.671875 1.484375q0.671875 0.59375 1.953125 0.59375q1.28125 0 2.28125 -0.5625q1.0 -0.5625 1.46875 -1.53125q0.359375 -0.75 0.359375 -2.21875l0 -0.8125zm5.5723267 11.59375l-0.25 -2.078125q0.734375 0.203125 1.265625 0.203125q0.75 0 1.1875 -0.25q0.453125 -0.25 0.734375 -0.6875q0.203125 -0.328125 0.671875 -1.65625q0.0625 -0.1875 0.203125 -0.53125l-4.96875 -13.109375l2.390625 0l2.71875 7.578125q0.53125 1.4375 0.953125 3.03125q0.375 -1.53125 0.90625 -2.984375l2.796875 -7.625l2.21875 0l-4.984375 13.296875q-0.796875 2.15625 -1.234375 2.96875q-0.59375 1.09375 -1.359375 1.609375q-0.765625 0.515625 -1.8125 0.515625q-0.640625 0 -1.4375 -0.28125z" fill-rule="nonzero"/><path fill="#000000" d="m489.19482 480.25137l0 -1.65625q-1.234375 1.953125 -3.65625 1.953125q-1.5625 0 -2.875 -0.859375q-1.3125 -0.859375 -2.03125 -2.40625q-0.71875 -1.546875 -0.71875 -3.5625q0 -1.953125 0.65625 -3.546875q0.65625 -1.59375 1.953125 -2.4375q1.3125 -0.859375 2.921875 -0.859375q1.1875 0 2.109375 0.5q0.921875 0.5 1.5 1.296875l0 -6.46875l2.203125 0l0 18.046875l-2.0625 0zm-7.0 -6.53125q0 2.515625 1.0625 3.765625q1.0625 1.234375 2.5 1.234375q1.453125 0 2.46875 -1.1875q1.015625 -1.1875 1.015625 -3.625q0 -2.6875 -1.046875 -3.9375q-1.03125 -1.25 -2.546875 -1.25q-1.46875 0 -2.46875 1.203125q-0.984375 1.203125 -0.984375 3.796875zm21.119202 6.53125l0 -1.921875q-1.53125 2.21875 -4.15625 2.21875q-1.15625 0 -2.15625 -0.4375q-1.0 -0.453125 -1.484375 -1.125q-0.484375 -0.671875 -0.6875 -1.640625q-0.140625 -0.65625 -0.140625 -2.0625l0 -8.109375l2.21875 0l0 7.25q0 1.734375 0.140625 2.34375q0.203125 0.875 0.875 1.375q0.6875 0.5 1.6875 0.5q1.0 0 1.859375 -0.515625q0.875 -0.515625 1.234375 -1.390625q0.375 -0.875 0.375 -2.5625l0 -7.0l2.21875 0l0 13.078125l-1.984375 0zm5.431732 0l0 -13.078125l1.984375 0l0 1.984375q0.765625 -1.390625 1.4062195 -1.828125q0.65625 -0.453125 1.4375 -0.453125q1.109375 0 2.28125 0.71875l-0.765625 2.046875q-0.8125 -0.46875 -1.625 -0.46875q-0.734375 0 -1.3125 0.4375q-0.5780945 0.4375 -0.8280945 1.203125q-0.359375 1.1875 -0.359375 2.59375l0 6.84375l-2.21875 0zm16.96054 -1.609375q-1.234375 1.046875 -2.375 1.484375q-1.140625 0.421875 -2.453125 0.421875q-2.15625 0 -3.3125 -1.046875q-1.15625 -1.0625 -1.15625 -2.703125q0 -0.953125 0.4375 -1.75q0.4375 -0.796875 1.140625 -1.265625q0.71875 -0.484375 1.609375 -0.734375q0.640625 -0.171875 1.96875 -0.328125q2.6875 -0.328125 3.953125 -0.765625q0.015625 -0.453125 0.015625 -0.578125q0 -1.359375 -0.640625 -1.90625q-0.84375 -0.75 -2.515625 -0.75q-1.5625 0 -2.3125 0.546875q-0.75 0.546875 -1.109375 1.9375l-2.15625 -0.296875q0.296875 -1.390625 0.96875 -2.25q0.671875 -0.859375 1.953125 -1.3125q1.28125 -0.46875 2.96875 -0.46875q1.671875 0 2.71875 0.40625q1.046875 0.390625 1.53125 0.984375q0.5 0.59375 0.703125 1.5q0.109375 0.578125 0.109375 2.046875l0 2.953125q0 3.09375 0.140625 3.921875q0.140625 0.8125 0.5625 1.5625l-2.3125 0q-0.34375 -0.6875 -0.4375 -1.609375zm-0.1875 -4.953125q-1.21875 0.484375 -3.625 0.84375q-1.359375 0.1875 -1.9375 0.4375q-0.5625 0.25 -0.875 0.71875q-0.296875 0.46875 -0.296875 1.046875q0 0.890625 0.671875 1.484375q0.671875 0.59375 1.953125 0.59375q1.28125 0 2.28125 -0.5625q1.0 -0.5625 1.46875 -1.53125q0.359375 -0.75 0.359375 -2.21875l0 -0.8125zm10.509827 4.578125l0.328125 1.953125q-0.9375 0.203125 -1.6875 0.203125q-1.203125 0 -1.875 -0.375q-0.65625 -0.390625 -0.9375 -1.0q-0.265625 -0.625 -0.265625 -2.625l0 -7.53125l-1.625 0l0 -1.71875l1.625 0l0 -3.234375l2.203125 -1.328125l0 4.5625l2.234375 0l0 1.71875l-2.234375 0l0 7.65625q0 0.9375 0.109375 1.21875q0.125 0.265625 0.390625 0.4375q0.265625 0.15625 0.765625 0.15625q0.359375 0 0.96875 -0.09375zm2.1784668 -13.515625l0 -2.546875l2.21875 0l0 2.546875l-2.21875 0zm0 15.5l0 -13.078125l2.21875 0l0 13.078125l-2.21875 0zm4.774658 -6.53125q0 -3.640625 2.015625 -5.390625q1.6875 -1.453125 4.109375 -1.453125q2.703125 0 4.40625 1.765625q1.71875 1.765625 1.71875 4.890625q0 2.515625 -0.765625 3.96875q-0.75 1.4375 -2.203125 2.25q-1.4375 0.796875 -3.15625 0.796875q-2.75 0 -4.4375 -1.75q-1.6875 -1.765625 -1.6875 -5.078125zm2.265625 0q0 2.5 1.09375 3.75q1.109375 1.25 2.765625 1.25q1.65625 0 2.75 -1.25q1.09375 -1.25 1.09375 -3.828125q0 -2.421875 -1.109375 -3.671875q-1.09375 -1.25 -2.734375 -1.25q-1.65625 0 -2.765625 1.25q-1.09375 1.234375 -1.09375 3.75zm12.572327 6.53125l0 -13.078125l2.0 0l0 1.859375q1.4375 -2.15625 4.15625 -2.15625q1.1875 0 2.171875 0.4375q1.0 0.421875 1.484375 1.109375q0.5 0.6875 0.703125 1.625q0.125 0.625 0.125 2.15625l0 8.046875l-2.21875 0l0 -7.953125q0 -1.359375 -0.265625 -2.03125q-0.25 -0.671875 -0.921875 -1.0625q-0.65625 -0.40625 -1.546875 -0.40625q-1.40625 0 -2.4375 0.90625q-1.03125 0.890625 -1.03125 3.40625l0 7.140625l-2.21875 0z" fill-rule="nonzero"/><path fill="#000000" fill-opacity="0.0" d="m557.0007 109.93258l-56.472412 1.1338577" fill-rule="evenodd"/><path stroke="#595959" stroke-width="1.8923884514435696" stroke-linejoin="round" stroke-linecap="butt" stroke-dasharray="7.569553805774278,5.677165354330708" d="m557.0007 109.93258l-56.472412 1.1338577" fill-rule="evenodd"/><path fill="#000000" fill-opacity="0.0" d="m294.32944 401.17188l197.25983 -292.25198" fill-rule="evenodd"/><path stroke="#595959" stroke-width="1.8923884514435696" stroke-linejoin="round" stroke-linecap="butt" d="m294.32944 401.17188l197.25983 -292.25198" fill-rule="evenodd"/><path fill="#000000" fill-opacity="0.0" d="m554.3135 312.82596l-62.740143 -203.9055" fill-rule="evenodd"/><path stroke="#595959" stroke-width="1.8923884514435696" stroke-linejoin="round" stroke-linecap="butt" d="m554.3135 312.82596l-62.740143 -203.9055" fill-rule="evenodd"/><path fill="#000000" fill-opacity="0.0" d="m331.92822 313.32718l125.73227 -183.71652l63.275604 26.64566l-125.7323 183.71655z" fill-rule="evenodd"/><path fill="#000000" d="m396.38425 293.89493l-14.840546 -10.269165l4.2711487 -6.240906q1.270752 -1.856781 2.2765198 -2.6624146q1.0057983 -0.80566406 2.3464966 -0.9387207q1.3406982 -0.13305664 2.8251953 0.49206543q2.0724182 0.8727112 2.6274414 2.634613q0.5550537 1.7618713 -0.85128784 4.5914307q1.2320557 -0.5276489 2.1758423 -0.66174316q2.143402 -0.30996704 4.1190796 -0.2088623l3.980713 0.21456909l-1.5178528 2.2178345l-3.892517 -0.26046753q-2.1167603 -0.1439209 -3.8690796 0.064971924q-1.2201843 0.15060425 -1.8465576 0.5678711q-0.64108276 0.41107178 -1.4529419 1.5973511l-1.58844 2.320984l6.5957947 4.55484l-1.3590088 1.9857483zm-6.8446045 -7.6495056l1.8884888 -2.7593994q1.3060608 -1.9083862 1.6443787 -2.5133972q0.6354675 -1.1775208 0.6887207 -2.085266q0.0385437 -0.91397095 -0.45217896 -1.6355286q-0.49075317 -0.72158813 -1.3726196 -1.0929565q-0.7496033 -0.3156433 -1.4963989 -0.2480774q-0.7614746 0.06137085 -1.2790527 0.4580078q-0.51760864 0.39660645 -1.303009 1.54422l-3.3269043 4.8611755l5.0085754 3.471222zm4.1091614 -15.85318l-2.0663147 -1.4348755l1.2531128 -1.8310242l2.0663147 1.434906l-1.2531128 1.8309937zm12.774231 8.83429l-10.757843 -7.437042l1.2619324 -1.8438721l10.757843 7.4370117l-1.2619324 1.8439026zm-0.87158203 -6.6388245l1.1296387 -1.8995972q0.9112854 0.38375854 1.7021484 0.41778564q0.7996826 0.021148682 1.6612854 -0.46316528q0.8616028 -0.48431396 1.4616699 -1.3611145q0.8295288 -1.2120667 0.6857605 -2.0533142q-0.13494873 -0.854126 -0.8845215 -1.1697998q-0.54382324 -0.2290039 -1.2759705 -0.07220459q-0.75564575 0.16351318 -2.467163 1.3363647q-1.7026978 1.1599731 -2.2702026 1.4359131q-0.9380493 0.48535156 -1.8230286 0.5611572q-0.88497925 0.07583618 -1.7227478 -0.27697754q-1.4551086 -0.61273193 -1.8015137 -2.0708313q-0.34640503 -1.4580994 0.90670776 -3.2891235q1.3942871 -2.037323 3.1908875 -2.6428223q1.7965698 -0.6055298 3.5720825 0.09234619l-1.0943298 1.8480225q-1.1288452 -0.4255371 -2.225586 -0.040252686q-1.1026611 0.36621094 -1.9145203 1.5524902q-0.65304565 0.9541931 -0.5151062 1.6932983q0.13790894 0.7391052 0.7258301 0.9866638q0.57321167 0.24139404 1.3230286 -0.024230957q0.5057373 -0.18566895 2.0025635 -1.1831665q2.4908142 -1.6752319 3.4729004 -1.9759521q1.5466003 -0.4616089 2.9282227 0.12020874q0.9112854 0.38372803 1.4578247 1.2450867q0.5465088 0.86135864 0.37850952 2.1028137q-0.1592102 1.2285767 -1.094635 2.595398q-1.2795715 1.86969 -3.2379456 2.7392883q-1.958374 0.8695679 -4.2717896 -0.20428467zm-1.6167603 -17.224884l-2.0663452 -1.434906l1.2531128 -1.8310089l2.0663452 1.434906l-1.2531128 1.8310089zm12.774231 8.834259l-10.757874 -7.4370117l1.2619324 -1.8439026l10.757874 7.437042l-1.2619324 1.8438721zm3.2172852 -4.7010193l-10.757843 -7.437027l1.1383667 -1.6633759l1.872345 1.3033752q-0.5227661 -1.6154175 -0.45178223 -2.7980957q0.06512451 -1.2017517 0.7358093 -2.1817322q0.90011597 -1.3152313 2.220337 -1.7226868q1.320221 -0.40745544 2.6871338 0.16815186q0.6760864 0.28471375 1.9605713 1.1744385l6.516449 4.504822l-1.2619324 1.8439026l-6.801544 -4.7245483q-1.005249 -0.6890869 -1.5490723 -0.9180908q-0.6026306 -0.25376892 -1.2406921 -0.040756226q-0.62924194 0.20011902 -1.1145935 0.909317q-0.96188354 1.4054871 -0.55966187 3.0033722q0.3963318 1.5787811 2.8565369 3.2958221l5.0026855 3.452118l-1.2531128 1.8309937zm8.967773 -11.000839l1.4618225 -1.7763367q0.70254517 0.32907104 1.1700134 0.30999756q0.4909973 -0.025787354 0.9379883 -0.3192749q0.60873413 -0.39146423 1.1470337 -1.1780243q1.1472168 -1.6762695 0.6566467 -2.8130493q-0.3348999 -0.75561523 -2.2719116 -2.102829l-0.8759155 -0.60139465q0.68133545 2.1306763 -0.42175293 3.7424774q-1.1207275 1.6375885 -3.246582 2.1708832q-2.1316833 0.5142212 -4.64505 -0.54415894q-2.0724182 -0.8726959 -3.2155151 -2.46698q-1.1342773 -1.6071625 -1.1954651 -3.1777039q-0.0758667 -1.5767212 0.7889404 -2.8403778q1.4560852 -2.1275787 4.534363 -2.3096313l-1.7665405 -1.2089844l1.1560364 -1.6891785l10.3845825 7.180176q1.7165527 1.171341 2.4071045 2.2095947q0.7052307 1.0444641 0.6018677 2.329773q-0.10336304 1.2853241 -1.0299377 2.6392365q-0.8912964 1.3023224 -1.9176636 2.0826874q-1.0263367 0.78038025 -2.0789185 0.93510437q-1.0437622 0.14183044 -1.9991455 -0.2604828q-0.27926636 -0.11758423 -0.58200073 -0.31152344zm-4.984497 -5.055664q1.2640076 0.5322876 2.0372314 0.5921173q1.1083679 0.06808472 1.9581604 -0.28831482q0.8439331 -0.37548828 1.3204651 -1.0717773q0.6177063 -0.90260315 0.5064392 -2.0955963q-0.10247803 -1.2058868 -1.236908 -2.3978577q-1.1491394 -1.1981506 -2.5160522 -1.7737732q-1.5285645 -0.643692 -2.9281616 -0.28627014q-1.3995667 0.35743713 -2.1496887 1.4534607q-0.4588623 0.6705017 -0.47973633 1.4756317q-0.020874023 0.80513 0.44628906 1.6994934q0.46713257 0.8943634 1.448822 1.6731873q0.99050903 0.7659302 1.5931396 1.0196991zm11.727631 -14.812195l1.1296387 -1.8995972q0.9112854 0.3837433 1.7021484 0.41778564q0.7996826 0.021148682 1.6612854 -0.46316528q0.8616028 -0.4842987 1.4616699 -1.3611298q0.8295288 -1.2120667 0.6857605 -2.053299q-0.13494873 -0.854126 -0.8845215 -1.1697845q-0.54382324 -0.2290039 -1.2759705 -0.07220459q-0.75564575 0.16349792 -2.467163 1.3363495q-1.7026672 1.1599884 -2.2702026 1.4359283q-0.9380493 0.4853363 -1.8230286 0.5611572q-0.88497925 0.075805664 -1.7227478 -0.27697754q-1.4551086 -0.61276245 -1.8015137 -2.0708618q-0.34640503 -1.4580994 0.90670776 -3.2891083q1.3942871 -2.0373077 3.1908875 -2.6428223q1.7965698 -0.6055145 3.5720825 0.09234619l-1.0943298 1.8480225q-1.1288452 -0.42552185 -2.225586 -0.040237427q-1.1026611 0.36619568 -1.9145203 1.552475q-0.65304565 0.95417786 -0.5151062 1.6932831q0.13790894 0.7391205 0.7258301 0.98669434q0.57321167 0.24137878 1.3230286 -0.024246216q0.5057373 -0.18566895 2.0025635 -1.1831818q2.4908142 -1.6752319 3.4729004 -1.9759216q1.5466003 -0.4616089 2.9282227 0.12019348q0.9112854 0.3837433 1.4577942 1.2450867q0.5465393 0.86135864 0.37854004 2.102829q-0.1592102 1.2285767 -1.094635 2.5953827q-1.2795715 1.86969 -3.2379456 2.739273q-1.958374 0.8695984 -4.2717896 -0.20426941zm11.113342 -8.326141l-14.849396 -10.256287l1.2531128 -1.8309937l14.849396 10.256287l-1.2531128 1.8309937zm-1.1918945 -7.0560913q-3.6010132 -1.5164032 -4.6819153 -4.363495q-0.9046936 -2.3576202 0.7984619 -4.846237q1.33255 -1.947052 3.54953 -2.5582428q2.202301 -0.6173706 4.568695 0.37911987q2.1164856 0.89126587 3.433075 2.425705q1.31073 1.5153656 1.3277283 3.316452q0.025817871 1.788208 -1.0243225 3.3226318q-0.8648071 1.2636566 -2.1881104 2.035263q-1.3233032 0.7715912 -2.8109741 0.8427582q-1.5023804 0.06498718 -2.972168 -0.5539551zm1.0473328 -1.9176483q1.7343445 0.7303467 3.1486511 0.3791046q1.3995667 -0.35742188 2.167328 -1.479248q0.4059143 -0.59313965 0.53848267 -1.28479q0.11782837 -0.69784546 -0.10534668 -1.4230347q-0.21435547 -0.7380676 -0.6815796 -1.383316q-0.473114 -0.6643219 -1.1549988 -1.2172394q-0.9258423 -0.80513 -1.9841003 -1.2507629q-1.6608582 -0.69940186 -3.0986633 -0.34146118q-1.4289856 0.345047 -2.1878967 1.4539642q-0.59124756 0.8639374 -0.6151123 1.7840729q-0.015014648 0.9072571 0.4991455 1.8712463q0.5083008 0.9449005 1.5281982 1.7232208q1.0052185 0.77212524 1.9458923 1.1682434zm15.418793 -4.463852l-14.884674 -10.28775l1.164856 -1.7020569l1.5078735 1.0336151q-0.4875183 -1.4178619 -0.40194702 -2.34523q0.070892334 -0.93356323 0.63568115 -1.7588043q1.05896 -1.5473328 3.0348206 -2.0275116q1.9758911 -0.48017883 4.371643 0.5286865q1.9107361 0.80462646 3.1098328 2.0404358q1.2079163 1.2229156 1.6073303 2.437561q0.39941406 1.2146606 0.2814331 2.2446747q-0.10913086 1.0171051 -0.709198 1.8939209q-1.33255 1.947052 -4.304962 2.0574188l5.849243 4.0411377l-1.2619324 1.8439026zm-7.2473755 -7.7526703q1.3816223 0.58180237 2.0254517 0.6369934q0.92611694 0.057769775 1.7935486 -0.3244171q0.8527527 -0.38838196 1.3734131 -1.1491547q1.0854187 -1.5860138 -0.28103638 -3.4072266q-1.3576355 -1.8341064 -3.4888306 -2.7315674q-1.5579834 -0.6560669 -2.8605347 -0.35743713q-1.3025513 0.29862976 -1.964386 1.2657013q-0.48538208 0.709198 -0.47387695 1.4947205q0.02029419 0.7726288 0.50509644 1.6412048q0.49362183 0.8556824 1.4841003 1.7046509q0.97579956 0.8427887 1.8870544 1.226532zm12.32132 -16.398972l1.4324036 -1.7056732q1.249176 1.0243378 1.6629944 2.9925385q0.42266846 1.9553223 -0.8922119 3.876587q-0.8206787 1.199173 -2.1410217 1.938797q-1.3115234 0.72673035 -2.8785706 0.74786377q-1.558197 0.008239746 -3.1015015 -0.6416321q-2.0136108 -0.84794617 -3.3536987 -2.458725q-1.3400879 -1.6107788 -1.3600464 -3.2968597q-0.03466797 -1.6922607 1.0066223 -3.2138062q1.3148804 -1.9212646 3.4671936 -2.4932556q2.1611328 -0.5848694 4.5274963 0.4116211q0.8965759 0.37754822 1.7548828 0.9216919l-5.4360046 7.9429474q0.32626343 0.18722534 0.62023926 0.3110199q1.7343445 0.7303467 3.1221619 0.41778564q1.3731079 -0.31874084 2.061432 -1.3245087q0.64419556 -0.9412842 0.5652466 -2.153885q-0.078948975 -1.2125854 -1.0576172 -2.2725067zm-6.7105713 4.050888l4.1387634 -6.04747q-0.31451416 -0.14906311 -0.44680786 -0.20477295q-1.5726929 -0.66226196 -2.8869934 -0.3187561q-1.3201904 0.3244171 -2.0614624 1.407547q-0.81188965 1.1862793 -0.54776 2.5432892q0.26412964 1.3570099 1.8042603 2.620163z" fill-rule="nonzero"/><path fill="#000000" fill-opacity="0.0" d="m511.5027 115.00531l62.141724 203.55905l-66.14172 13.700775l-62.141754 -203.55904z" fill-rule="evenodd"/><path fill="#000000" d="m481.3692 160.88739l17.746826 -3.676117l1.8157349 5.947769q0.6112976 2.0025177 0.6893616 3.1144714q0.0982666 1.5526733 -0.49975586 2.8046875q-0.76797485 1.6049957 -2.4218445 2.6625977q-1.6339722 1.0693665 -4.000244 1.5595093q-2.0281982 0.4201355 -3.7368774 0.2815094q-1.6932983 -0.14179993 -2.9417725 -0.645874q-1.2330627 -0.5072632 -2.0923462 -1.2349396q-0.8439331 -0.73088074 -1.520752 -1.8777008q-0.6614685 -1.1499939 -1.1405029 -2.7191315l-1.8978271 -6.2167816zm2.7831116 1.8386536l1.126831 3.691208q0.52008057 1.7036438 1.1392822 2.6081696q0.6345825 0.9013519 1.4117432 1.3600464q1.0760803 0.6351166 2.6265259 0.7906189q1.5550537 0.17045593 3.5525208 -0.24331665q2.7964783 -0.5792694 4.0131836 -1.7846527q1.2212524 -1.1904297 1.3405151 -2.5657196q0.0859375 -1.0029297 -0.5345154 -3.035324l-1.1085815 -3.6314392l-13.567505 2.8104095zm9.210388 22.999664l0.37869263 2.2572632q-2.1264343 -0.11564636 -3.6462097 -1.2944183q-1.5151978 -1.1638336 -2.1812744 -3.3456726q-0.8394165 -2.7497253 0.4041443 -4.723358q1.2481384 -1.9586792 4.3826294 -2.6079712q3.2574463 -0.6747589 5.537079 0.58496094q2.294983 1.2565155 3.0842285 3.841858q0.766449 2.51062 -0.5169678 4.460724q-1.2634888 1.9618683 -4.444092 2.620697q-0.19976807 0.041381836 -0.58843994 0.10600281l-2.8467712 -9.32515q-2.0838928 0.55877686 -2.8862 1.8372192q-0.80233765 1.2784271 -0.32330322 2.8475647q0.35583496 1.1656494 1.2367249 1.8570862q0.8808899 0.69143677 2.4097595 0.88319397zm1.3972473 -7.677902l2.1305237 6.9789276q1.5677185 -0.48364258 2.1813354 -1.3098602q0.95428467 -1.2622528 0.46157837 -2.8762207q-0.44708252 -1.4645233 -1.7668457 -2.255722q-1.2998352 -0.7794342 -3.0065918 -0.53712463zm3.1477356 20.585907l0.3421631 2.1377106q-2.317505 0.114608765 -4.0062866 -1.0291443q-1.6734314 -1.1469421 -2.2984314 -3.1943054q-0.78466797 -2.5703888 0.45721436 -4.496002q1.2618103 -1.9138489 4.4731445 -2.5790558q2.0896606 -0.43286133 3.8468323 -0.081832886q1.7725525 0.34783936 2.975891 1.560379q1.2033386 1.2125397 1.6914978 2.8115692q0.625 2.047348 -0.042877197 3.5521698q-0.66326904 1.5197449 -2.5006104 2.2975616l-0.95224 -1.9954529q1.1994324 -0.5662384 1.6166687 -1.4471283q0.43258667 -0.8840637 0.10870361 -1.9450989q-0.48815918 -1.5990295 -1.9769287 -2.3552094q-1.4734192 -0.7593689 -4.0394287 -0.22782898q-2.5813599 0.5346985 -3.4725037 1.736206q-0.8712158 1.2132568 -0.39675903 2.767456q0.38320923 1.25531 1.4223328 1.9298553q1.039093 0.67456055 2.7516174 0.55815125zm0.5470886 12.7092285q-1.3898621 -0.96733093 -2.1531372 -1.9691467q-0.7478943 -1.0049896 -1.1311035 -2.2602997q-0.62957764 -2.0622864 0.062316895 -3.3814087q0.70721436 -1.3222961 2.3205872 -1.6564789q0.93725586 -0.19415283 1.8486328 0.061950684q0.91137695 0.25611877 1.5776062 0.8331299q0.68618774 0.5887604 1.1920776 1.3896484q0.35604858 0.57769775 0.89749146 1.8161316q1.1073608 2.5035553 1.9071045 3.6249084q0.4501648 -0.07736206 0.5730591 -0.10281372q1.336792 -0.27690125 1.6875305 -1.0010223q0.49118042 -0.9597473 0.0030212402 -2.5587769q-0.45620728 -1.4944153 -1.2129517 -2.1003418q-0.7567749 -0.60591125 -2.2292175 -0.6663666l-0.33761597 -2.1227722q1.4541626 6.713867E-4 2.4954224 0.46821594q1.0412598 0.46754456 1.8609619 1.6006775q0.8350525 1.1299286 1.3277588 2.7438965q0.48812866 1.5990295 0.3942871 2.6830444q-0.07846069 1.0808258 -0.52090454 1.6650391q-0.43789673 0.59916687 -1.2697754 0.9780426q-0.5365906 0.22236633 -1.9809265 0.5215454l-2.9040222 0.60154724q-3.0422974 0.63020325 -3.8156128 0.9333801q-0.7579346 0.30000305 -1.3722839 0.85627747l-0.6751709 -2.2117462q0.5756836 -0.46881104 1.4548645 -0.7462616zm4.81604 -1.1882782q-0.83218384 -1.0669708 -1.8881226 -3.295166q-0.5812988 -1.2619476 -0.99594116 -1.7639618q-0.4100647 -0.48706055 -0.9622803 -0.6904602q-0.54763794 -0.1884613 -1.1161499 -0.07069397q-0.875824 0.181427 -1.2635193 0.94496155q-0.38772583 0.7635498 -0.01361084 1.9889679q0.37408447 1.2254181 1.2192078 2.0672607q0.8451233 0.8418579 1.9346313 1.0928497q0.84246826 0.19093323 2.2867737 -0.10824585l0.79901123 -0.16551208zm-9.774017 7.6911774l1.970581 -0.66241455q0.0146484375 0.7437439 0.16976929 1.2518463q0.21899414 0.7173157 0.5925598 1.0848389q0.3781433 0.3824463 0.8905029 0.56233215q0.381958 0.12742615 1.8248901 0.30522156q0.2026062 0.021575928 0.5817261 0.08605957l11.440674 -7.4226227l0.69799805 2.2864685l-6.658325 4.143936q-1.2585144 0.8009186 -2.7025757 1.5290527q1.6152954 0.04675293 3.1993713 0.2588501l8.314819 1.1217957l0.64782715 2.1220703l-14.531097 -2.0586243q-2.3530884 -0.32292175 -3.2798157 -0.57585144q-1.2489319 -0.34509277 -1.9795227 -0.97232056q-0.7305908 -0.6272278 -1.0362549 -1.6284943q-0.18704224 -0.6127014 -0.14312744 -1.4321442zm14.288147 16.193436l0.9767151 2.022171q-1.2359314 0.4466858 -1.6809998 1.3968964q-0.44509888 0.9502106 -0.0025634766 2.3997803q0.4425354 1.449585 1.2561951 2.027832q0.83358765 0.5900116 1.6632996 0.4181366q0.7375488 -0.152771 0.9761658 -0.86953735q0.14425659 -0.49067688 0.07601929 -2.319687q-0.112457275 -2.4554138 0.059417725 -3.4443665q0.171875 -0.98895264 0.7941284 -1.626297q0.6422119 -0.6255951 1.5948486 -0.822937q0.86047363 -0.17822266 1.7012329 0.06072998q0.85614014 0.23577881 1.548584 0.79145813q0.5192871 0.41677856 1.0405273 1.2144928q0.52130127 0.797699 0.81781006 1.7690735q0.45166016 1.4794769 0.34362793 2.6776428q-0.08807373 1.2099304 -0.6812744 1.8889313q-0.5733032 0.6907654 -1.7585449 1.1428375l-0.9215088 -2.0018158q0.953125 -0.35632324 1.2963867 -1.1583405q0.34783936 -0.7870636 -0.026245117 -2.0124817q-0.44708252 -1.4645233 -1.1303711 -1.9903259q-0.6832886 -0.5258179 -1.359375 -0.3857727q-0.41485596 0.0859375 -0.67077637 0.42495728q-0.27581787 0.32725525 -0.3375244 0.92793274q-0.02709961 0.33927917 0.017150879 1.9825897q0.058898926 2.3870697 -0.07147217 3.351532q-0.1104126 0.97621155 -0.7081909 1.640274q-0.5977783 0.6640625 -1.704071 0.893219q-1.0909119 0.22598267 -2.2505493 -0.20115662q-1.139679 -0.41537476 -2.0333252 -1.4696198q-0.87823486 -1.0574341 -1.329895 -2.536911q-0.7436218 -2.4358978 -0.09112549 -3.9375153q0.65704346 -1.4866943 2.5957031 -2.2537231zm0.082092285 13.647675l17.746857 -3.6761322l0.64782715 2.1220703l-17.746857 3.6761322l-0.64782715 -2.1220703zm7.8349915 3.2960052q3.5800781 -0.7415924 5.8895264 0.8297272q1.9216919 1.3179779 2.6287842 3.6343231q0.7892456 2.5853424 -0.44976807 4.5738983q-1.234436 2.0035095 -4.307495 2.6400757q-2.473755 0.51242065 -4.1262817 0.076171875q-1.6325684 -0.4244995 -2.855835 -1.6488037q-1.2033386 -1.2125549 -1.7051697 -2.8564148q-0.802948 -2.6301575 0.42526245 -4.600601q1.2435303 -1.9736176 4.5009766 -2.6483765zm0.661499 2.1669006q-2.458435 0.5092468 -3.3682861 1.809967q-0.9053345 1.3156586 -0.42175293 2.8997345q0.48358154 1.5840759 2.0321655 2.3755493q1.548584 0.7914734 4.0838013 0.2662964q2.3816528 -0.49331665 3.2869263 -1.8089905q0.9099121 -1.3007202 0.43084717 -2.8698425q-0.48358154 -1.5840759 -2.0366821 -2.3904877q-1.5332031 -0.7946625 -4.007019 -0.28222656zm-7.684082 14.376602l17.792908 -3.6856995l0.5930786 1.942749l-1.6748047 0.34692383q1.1886597 0.46878052 1.9403687 1.21875q0.75634766 0.7649231 1.1304321 1.9903259q0.49267578 1.6139832 0.017150879 2.9995117q-0.4710083 1.4004822 -1.8312988 2.3496094q-1.3449097 0.94592285 -3.1887207 1.3278503q-1.9821167 0.4105835 -3.7745972 0.050994873q-1.7770996 -0.36279297 -3.0236816 -1.5028381q-1.246521 -1.1400146 -1.6890869 -2.5895996q-0.32391357 -1.0610352 -0.12298584 -2.0083313q0.20550537 -0.93237305 0.7480469 -1.6167603l-6.2690125 1.298584l-0.64779663 -2.1220703zm11.881958 -0.41156006q-2.4891968 0.5155945 -3.3757935 1.7320557q-0.88201904 1.2313843 -0.45770264 2.6211853q0.428833 1.4047546 1.9636841 2.1513977q1.5394287 0.76156616 4.1207886 0.22686768q2.458435 -0.5092468 3.3712158 -1.7470093q0.9281006 -1.2409363 0.51293945 -2.6008606q-0.4151001 -1.3599243 -2.0405273 -2.1354675q-1.6208496 -0.7606201 -4.0946045 -0.24816895zm3.90802 20.507843l0.37872314 2.2572937q-2.1264648 -0.11566162 -3.6461792 -1.2944336q-1.5152588 -1.1638184 -2.1812744 -3.3456726q-0.83947754 -2.7497253 0.40411377 -4.723358q1.2481079 -1.9586792 4.3826294 -2.6079712q3.2574463 -0.67474365 5.5370483 0.58496094q2.295044 1.2565308 3.0842896 3.841858q0.76641846 2.51062 -0.5170288 4.460724q-1.2634888 1.961853 -4.444092 2.620697q-0.19970703 0.041381836 -0.58843994 0.10601807l-2.8467407 -9.325165q-2.0839233 0.55877686 -2.8862305 1.8372192q-0.8023071 1.2784424 -0.32330322 2.8475647q0.355896 1.1656494 1.2367554 1.8570862q0.8809204 0.69143677 2.409729 0.8831787zm1.3972778 -7.677887l2.1304932 6.978943q1.567749 -0.48364258 2.1813354 -1.3098755q0.95428467 -1.2622375 0.4616089 -2.8762207q-0.44708252 -1.4645386 -1.7668457 -2.2557373q-1.2998657 -0.77941895 -3.0065918 -0.5371094z" fill-rule="nonzero"/></g></svg>